<?xml version="1.0" standalone="no"?>
<!DOCTYPE svg PUBLIC "-//W3C//DTD SVG 20010904//EN"
 "http://www.w3.org/TR/2001/REC-SVG-20010904/DTD/svg10.dtd">
<svg version="1.0" xmlns="http://www.w3.org/2000/svg"
 width="640.000000pt" height="640.000000pt" viewBox="0 0 640.000000 640.000000"
 preserveAspectRatio="xMidYMid meet">
<metadata>
Created by potrace 1.14, written by Peter Selinger 2001-2017
</metadata>
<g transform="translate(0.000000,640.000000) scale(0.100000,-0.100000)"
fill="#000000" stroke="none">
<path d="M2815 6150 c27 -12 35 -12 35 0 0 6 -12 10 -27 9 -25 0 -26 -1 -8 -9z"/>
<path d="M2009 6013 c-13 -17 -13 -17 6 -3 11 8 22 16 24 17 2 2 0 3 -6 3 -6
0 -17 -8 -24 -17z"/>
<path d="M2800 6020 c0 -5 5 -10 11 -10 5 0 7 5 4 10 -3 6 -8 10 -11 10 -2 0
-4 -4 -4 -10z"/>
<path d="M2547 5976 c-4 -10 -5 -21 -2 -24 9 -9 17 6 13 25 -3 17 -4 17 -11
-1z"/>
<path d="M2675 5980 c-3 -5 -1 -10 4 -10 6 0 11 5 11 10 0 6 -2 10 -4 10 -3 0
-8 -4 -11 -10z"/>
<path d="M2715 5980 c-3 -5 1 -10 10 -10 9 0 13 5 10 10 -3 6 -8 10 -10 10 -2
0 -7 -4 -10 -10z"/>
<path d="M2775 5980 l-30 -6 35 -6 c38 -6 49 -3 34 10 -5 5 -22 6 -39 2z"/>
<path d="M2613 5973 c9 -2 23 -2 30 0 6 3 -1 5 -18 5 -16 0 -22 -2 -12 -5z"/>
<path d="M3186 5945 c4 -8 11 -15 16 -15 6 0 5 6 -2 15 -7 8 -14 15 -16 15 -2
0 -1 -7 2 -15z"/>
<path d="M2160 5930 c0 -5 5 -10 10 -10 6 0 10 5 10 10 0 6 -4 10 -10 10 -5 0
-10 -4 -10 -10z"/>
<path d="M2215 5930 c3 -5 8 -10 11 -10 2 0 4 5 4 10 0 6 -5 10 -11 10 -5 0
-7 -4 -4 -10z"/>
<path d="M2960 5936 c0 -2 7 -7 16 -10 8 -3 12 -2 9 4 -6 10 -25 14 -25 6z"/>
<path d="M2060 5914 c0 -8 5 -12 10 -9 6 4 8 11 5 16 -9 14 -15 11 -15 -7z"/>
<path d="M2310 5920 c0 -5 5 -10 11 -10 5 0 7 5 4 10 -3 6 -8 10 -11 10 -2 0
-4 -4 -4 -10z"/>
<path d="M3585 5910 c3 -5 8 -10 11 -10 2 0 4 5 4 10 0 6 -5 10 -11 10 -5 0
-7 -4 -4 -10z"/>
<path d="M1890 5880 c-23 -32 -16 -39 16 -14 10 8 13 13 7 9 -16 -8 -17 7 -1
23 7 7 9 12 6 12 -4 0 -16 -13 -28 -30z"/>
<path d="M3050 5886 c0 -2 8 -10 18 -17 15 -13 16 -12 3 4 -13 16 -21 21 -21
13z"/>
<path d="M2115 5850 c-3 -5 -1 -10 4 -10 6 0 11 5 11 10 0 6 -2 10 -4 10 -3 0
-8 -4 -11 -10z"/>
<path d="M3847 5839 c7 -7 15 -10 18 -7 3 3 -2 9 -12 12 -14 6 -15 5 -6 -5z"/>
<path d="M1770 5823 c-25 -10 -41 -43 -20 -43 6 0 10 7 10 15 0 9 6 15 13 14
25 -3 38 1 32 11 -7 11 -12 11 -35 3z"/>
<path d="M1843 5803 c9 -2 23 -2 30 0 6 3 -1 5 -18 5 -16 0 -22 -2 -12 -5z"/>
<path d="M1895 5785 c0 -14 3 -25 8 -25 4 0 7 11 7 25 0 14 -3 25 -7 25 -5 0
-8 -11 -8 -25z"/>
<path d="M1945 5800 c-3 -5 1 -10 9 -10 9 0 16 5 16 10 0 6 -4 10 -9 10 -6 0
-13 -4 -16 -10z"/>
<path d="M1988 5803 c7 -3 16 -2 19 1 4 3 -2 6 -13 5 -11 0 -14 -3 -6 -6z"/>
<path d="M1695 5770 c-3 -5 -2 -10 4 -10 5 0 13 5 16 10 3 6 2 10 -4 10 -5 0
-13 -4 -16 -10z"/>
<path d="M2855 5770 c3 -5 13 -10 21 -10 8 0 12 5 9 10 -3 6 -13 10 -21 10 -8
0 -12 -4 -9 -10z"/>
<path d="M1659 5743 c-13 -16 -12 -17 4 -4 9 7 17 15 17 17 0 8 -8 3 -21 -13z"/>
<path d="M2530 5751 c0 -8 -56 -25 -73 -22 -4 0 -24 -10 -45 -22 -20 -13 -48
-27 -60 -32 -13 -4 -32 -15 -42 -25 -29 -29 2 -33 33 -4 27 25 54 33 41 12 -4
-7 -3 -8 5 -4 6 4 9 12 6 17 -4 5 1 9 9 9 9 0 16 4 16 10 0 5 7 7 15 3 9 -3
24 2 35 12 10 9 29 18 42 18 13 1 31 10 41 19 16 17 16 18 -3 18 -11 0 -20 -4
-20 -9z"/>
<path d="M2900 5755 c0 -2 10 -10 23 -16 20 -11 21 -11 8 4 -13 16 -31 23 -31
12z"/>
<path d="M4070 5756 c0 -2 8 -10 18 -17 15 -13 16 -12 3 4 -13 16 -21 21 -21
13z"/>
<path d="M3420 5740 c0 -5 12 -10 28 -9 24 0 25 1 7 9 -27 12 -35 12 -35 0z"/>
<path d="M2955 5720 c3 -5 8 -10 11 -10 2 0 4 5 4 10 0 6 -5 10 -11 10 -5 0
-7 -4 -4 -10z"/>
<path d="M1609 5703 c-13 -16 -12 -17 4 -4 9 7 17 15 17 17 0 8 -8 3 -21 -13z"/>
<path d="M1780 5705 c-8 -9 -8 -15 -2 -15 12 0 26 19 19 26 -2 2 -10 -2 -17
-11z"/>
<path d="M2778 5703 c7 -3 16 -2 19 1 4 3 -2 6 -13 5 -11 0 -14 -3 -6 -6z"/>
<path d="M3183 5630 c0 -36 2 -50 4 -32 2 17 2 47 0 65 -2 17 -4 3 -4 -33z"/>
<path d="M2956 5657 c3 -10 9 -15 12 -12 3 3 0 11 -7 18 -10 9 -11 8 -5 -6z"/>
<path d="M2485 5650 c-3 -5 -2 -10 4 -10 5 0 13 5 16 10 3 6 2 10 -4 10 -5 0
-13 -4 -16 -10z"/>
<path d="M1689 5618 c-17 -24 -18 -29 -6 -19 18 14 42 51 33 51 -3 0 -15 -15
-27 -32z"/>
<path d="M1524 5618 l-19 -23 23 19 c21 18 27 26 19 26 -2 0 -12 -10 -23 -22z"/>
<path d="M2220 5610 c-8 -15 -8 -20 2 -20 9 0 9 -3 0 -12 -7 -7 -12 -16 -12
-22 0 -5 6 -4 13 3 6 6 12 25 12 42 0 34 -1 35 -15 9z"/>
<path d="M2269 5628 c-1 -2 -2 -25 -4 -53 -1 -27 -5 -60 -9 -72 -6 -18 -4 -22
7 -17 17 6 30 67 16 72 -5 2 0 17 12 33 20 29 14 40 -10 17 -10 -11 -11 -10
-6 5 4 9 4 17 1 17 -3 0 -7 -1 -7 -2z"/>
<path d="M2316 5595 c-3 -9 -6 -22 -5 -28 0 -7 5 -1 10 12 5 13 8 26 5 28 -2
2 -6 -3 -10 -12z"/>
<path d="M4165 5600 c3 -5 8 -10 11 -10 2 0 4 5 4 10 0 6 -5 10 -11 10 -5 0
-7 -4 -4 -10z"/>
<path d="M1798 5593 c-10 -2 -18 -9 -18 -14 0 -6 8 -5 20 1 11 6 20 13 20 15
0 3 -1 4 -2 4 -2 -1 -11 -3 -20 -6z"/>
<path d="M2601 5584 c0 -11 3 -14 6 -6 3 7 2 16 -1 19 -3 4 -6 -2 -5 -13z"/>
<path d="M3061 5564 c0 -11 3 -14 6 -6 3 7 2 16 -1 19 -3 4 -6 -2 -5 -13z"/>
<path d="M1740 5560 c-8 -5 -11 -12 -7 -16 4 -4 13 -2 19 4 15 15 7 24 -12 12z"/>
<path d="M1486 5551 c-4 -7 -5 -15 -2 -18 9 -9 19 4 14 18 -4 11 -6 11 -12 0z"/>
<path d="M1785 5549 c-4 -6 -5 -12 -2 -15 2 -3 7 2 10 11 7 17 1 20 -8 4z"/>
<path d="M2187 5554 c-4 -4 -7 -16 -7 -26 0 -11 -4 -17 -9 -14 -19 12 -28
-151 -11 -204 5 -16 8 10 8 71 0 70 4 104 16 128 17 31 18 60 3 45z"/>
<path d="M2712 5540 c0 -14 2 -19 5 -12 2 6 2 18 0 25 -3 6 -5 1 -5 -13z"/>
<path d="M2235 5539 c-4 -6 -5 -12 -2 -15 2 -3 7 2 10 11 7 17 1 20 -8 4z"/>
<path d="M2927 5531 c-4 -17 -3 -21 5 -13 5 5 8 16 6 23 -3 8 -7 3 -11 -10z"/>
<path d="M3971 5534 c0 -11 3 -14 6 -6 3 7 2 16 -1 19 -3 4 -6 -2 -5 -13z"/>
<path d="M1696 5525 c-10 -8 -23 -12 -29 -8 -6 3 -7 1 -3 -6 4 -6 2 -18 -4
-26 -8 -10 -9 -15 -2 -15 6 0 14 9 17 20 3 11 13 20 20 20 8 0 17 5 20 11 11
17 2 19 -19 4z"/>
<path d="M1952 5510 c0 -19 2 -27 5 -17 2 9 2 25 0 35 -3 9 -5 1 -5 -18z"/>
<path d="M1548 5523 c7 -3 16 -2 19 1 4 3 -2 6 -13 5 -11 0 -14 -3 -6 -6z"/>
<path d="M2867 5523 c-2 -5 -1 -17 3 -27 6 -19 7 -19 12 2 6 21 -6 40 -15 25z"/>
<path d="M1742 5500 c0 -14 2 -19 5 -12 2 6 2 18 0 25 -3 6 -5 1 -5 -13z"/>
<path d="M2053 5480 c0 -25 2 -35 4 -22 2 12 2 32 0 45 -2 12 -4 2 -4 -23z"/>
<path d="M2209 5496 c-2 -36 -2 -49 1 -103 l2 -48 10 49 c6 31 5 53 -1 59 -6
6 -6 19 -1 33 6 14 6 26 0 29 -6 4 -11 -5 -11 -19z"/>
<path d="M3810 5516 c0 -3 9 -10 20 -16 11 -6 20 -8 20 -6 0 3 -9 10 -20 16
-11 6 -20 8 -20 6z"/>
<path d="M2815 5500 c-16 -7 -17 -9 -3 -9 9 -1 20 4 23 9 7 11 7 11 -20 0z"/>
<path d="M3091 5494 c0 -11 3 -14 6 -6 3 7 2 16 -1 19 -3 4 -6 -2 -5 -13z"/>
<path d="M3973 5475 c0 -22 2 -30 4 -17 2 12 2 30 0 40 -3 9 -5 -1 -4 -23z"/>
<path d="M2775 5490 c-3 -5 -1 -10 4 -10 6 0 11 5 11 10 0 6 -2 10 -4 10 -3 0
-8 -4 -11 -10z"/>
<path d="M1997 5456 c-4 -10 -7 -34 -6 -54 l1 -37 9 45 c10 48 7 75 -4 46z"/>
<path d="M2710 5454 c0 -8 5 -12 10 -9 6 4 8 11 5 16 -9 14 -15 11 -15 -7z"/>
<path d="M3886 5456 c3 -9 11 -16 16 -16 13 0 5 23 -10 28 -7 2 -10 -2 -6 -12z"/>
<path d="M1620 5436 c-12 -33 -12 -36 -1 -36 10 0 25 50 17 58 -3 2 -10 -7
-16 -22z"/>
<path d="M2666 5431 c-4 -7 -5 -15 -2 -18 9 -9 19 4 14 18 -4 11 -6 11 -12 0z"/>
<path d="M3963 5411 c-9 -14 -7 -26 10 -59 11 -23 22 -40 25 -38 2 2 -4 19
-13 36 -10 19 -14 42 -11 56 8 29 5 30 -11 5z"/>
<path d="M1551 5404 c0 -11 3 -14 6 -6 3 7 2 16 -1 19 -3 4 -6 -2 -5 -13z"/>
<path d="M1316 5394 c-4 -9 -4 -19 -1 -22 2 -3 7 3 11 12 4 9 4 19 1 22 -2 3
-7 -3 -11 -12z"/>
<path d="M2599 5383 c-13 -16 -12 -17 4 -4 9 7 17 15 17 17 0 8 -8 3 -21 -13z"/>
<path d="M1375 5370 c-3 -5 -1 -10 4 -10 6 0 11 5 11 10 0 6 -2 10 -4 10 -3 0
-8 -4 -11 -10z"/>
<path d="M2050 5362 c0 -12 3 -12 15 -2 8 7 15 13 15 15 0 1 -7 2 -15 2 -8 0
-15 -7 -15 -15z"/>
<path d="M1982 5348 c-19 -19 -14 -30 8 -18 11 6 20 15 20 20 0 14 -14 12 -28
-2z"/>
<path d="M4055 5335 c4 -11 12 -39 17 -63 6 -24 12 -41 14 -39 9 8 -9 87 -23
104 -14 17 -14 17 -8 -2z"/>
<path d="M1945 5320 c-3 -5 -1 -10 4 -10 6 0 11 5 11 10 0 6 -2 10 -4 10 -3 0
-8 -4 -11 -10z"/>
<path d="M1273 5274 c0 -17 2 -22 7 -13 5 6 6 18 3 26 -8 19 -10 16 -10 -13z"/>
<path d="M2476 5273 c-6 -14 -5 -15 5 -6 7 7 10 15 7 18 -3 3 -9 -2 -12 -12z"/>
<path d="M4018 5263 c5 -21 7 -23 10 -9 2 10 0 22 -6 28 -6 6 -7 0 -4 -19z"/>
<path d="M1160 5250 c-9 -6 -10 -10 -3 -10 6 0 15 5 18 10 8 12 4 12 -15 0z"/>
<path d="M2443 5228 c-22 -26 -39 -63 -23 -53 6 3 10 11 10 17 0 7 10 22 22
35 12 13 19 23 16 23 -2 0 -14 -10 -25 -22z"/>
<path d="M2667 5243 c-4 -3 -7 -18 -6 -32 1 -26 1 -25 10 3 9 31 7 41 -4 29z"/>
<path d="M1798 5229 c-10 -5 -18 -14 -18 -19 0 -17 15 -11 28 10 14 23 13 23
-10 9z"/>
<path d="M1135 5220 c-3 -5 -1 -10 4 -10 6 0 11 5 11 10 0 6 -2 10 -4 10 -3 0
-8 -4 -11 -10z"/>
<path d="M4090 5150 c0 -40 2 -71 6 -68 7 8 7 128 0 136 -3 3 -6 -28 -6 -68z"/>
<path d="M1747 5183 c-4 -3 -7 -11 -7 -17 0 -6 5 -5 12 2 6 6 9 14 7 17 -3 3
-9 2 -12 -2z"/>
<path d="M3611 5174 c0 -11 3 -14 6 -6 3 7 2 16 -1 19 -3 4 -6 -2 -5 -13z"/>
<path d="M1150 5145 c-7 -9 -11 -17 -9 -20 3 -2 10 5 17 15 14 24 10 26 -8 5z"/>
<path d="M2616 5125 c-9 -26 -7 -32 5 -12 6 10 9 21 6 23 -2 3 -7 -2 -11 -11z"/>
<path d="M1705 5122 c-12 -8 -37 -52 -31 -52 3 0 14 14 26 30 22 31 23 35 5
22z"/>
<path d="M3731 5084 c-7 -20 -11 -38 -8 -40 3 -3 10 11 17 31 16 47 8 55 -9 9z"/>
<path d="M4050 5095 c0 -14 -4 -34 -10 -45 -5 -11 -15 -29 -20 -40 -8 -15 -7
-20 3 -20 7 0 20 26 30 58 20 68 20 72 7 72 -5 0 -10 -11 -10 -25z"/>
<path d="M2660 4922 c0 -89 4 -162 8 -162 10 0 8 307 -2 317 -3 3 -6 -66 -6
-155z"/>
<path d="M2932 5035 c0 -16 2 -22 5 -12 2 9 2 23 0 30 -3 6 -5 -1 -5 -18z"/>
<path d="M1646 4993 c-15 -75 -15 -102 -2 -148 l13 -50 2 113 c1 112 -3 136
-13 85z"/>
<path d="M2552 4930 c-1 -80 12 -197 18 -165 5 27 6 207 2 185 -5 -19 -8 -14
-13 25 -5 40 -6 31 -7 -45z"/>
<path d="M2693 4945 c0 -38 2 -53 4 -32 2 20 2 52 0 70 -2 17 -4 1 -4 -38z"/>
<path d="M3694 4994 c-4 -10 -9 -22 -11 -26 -2 -5 0 -8 5 -8 10 0 24 41 17 48
-3 3 -8 -4 -11 -14z"/>
<path d="M2809 4933 c-2 -93 0 -135 6 -141 3 -3 5 43 5 101 0 117 -9 149 -11
40z"/>
<path d="M4270 4975 c-6 -15 -8 -30 -6 -33 3 -3 10 8 16 23 6 15 8 30 6 33 -3
3 -10 -8 -16 -23z"/>
<path d="M2437 4905 c3 -58 2 -76 -6 -65 -6 8 -11 12 -11 9 0 -9 31 -69 36
-69 6 0 -7 148 -16 179 -5 15 -6 -7 -3 -54z"/>
<path d="M2066 4958 c-11 -34 -15 -98 -7 -98 5 0 11 25 13 55 3 54 1 67 -6 43z"/>
<path d="M2372 4950 c0 -14 2 -19 5 -12 2 6 2 18 0 25 -3 6 -5 1 -5 -13z"/>
<path d="M1800 4944 c0 -8 5 -12 10 -9 6 4 8 11 5 16 -9 14 -15 11 -15 -7z"/>
<path d="M4043 4930 c-6 -17 -8 -30 -3 -30 8 0 24 50 18 56 -2 2 -9 -10 -15
-26z"/>
<path d="M2221 4934 c0 -11 3 -14 6 -6 3 7 2 16 -1 19 -3 4 -6 -2 -5 -13z"/>
<path d="M2762 4925 c0 -16 2 -22 5 -12 2 9 2 23 0 30 -3 6 -5 -1 -5 -18z"/>
<path d="M2504 4894 c-3 -19 -2 -50 4 -67 9 -29 10 -25 11 36 1 74 -5 86 -15
31z"/>
<path d="M4227 4900 c-9 -11 -13 -20 -8 -20 11 0 35 29 29 35 -2 2 -12 -4 -21
-15z"/>
<path d="M4392 4900 c0 -14 2 -19 5 -12 2 6 2 18 0 25 -3 6 -5 1 -5 -13z"/>
<path d="M4753 4875 c0 -27 2 -38 4 -22 2 15 2 37 0 50 -2 12 -4 0 -4 -28z"/>
<path d="M2390 4895 c0 -8 4 -15 10 -15 5 0 7 7 4 15 -4 8 -8 15 -10 15 -2 0
-4 -7 -4 -15z"/>
<path d="M1255 4891 c-6 -11 9 -23 19 -14 9 9 7 23 -3 23 -6 0 -12 -4 -16 -9z"/>
<path d="M2101 4884 c0 -11 3 -14 6 -6 3 7 2 16 -1 19 -3 4 -6 -2 -5 -13z"/>
<path d="M2762 4860 c0 -14 2 -19 5 -12 2 6 2 18 0 25 -3 6 -5 1 -5 -13z"/>
<path d="M3616 4855 c-20 -30 -21 -41 -2 -26 12 10 29 51 21 51 -1 0 -10 -11
-19 -25z"/>
<path d="M1379 4865 c-1 -3 -2 -11 -3 -17 -1 -12 -6 -14 -48 -17 -10 0 -18 -5
-18 -11 0 -5 7 -7 16 -3 9 3 20 0 25 -8 6 -10 9 -10 9 -1 0 6 6 12 14 12 7 0
16 11 18 25 3 14 1 25 -3 25 -5 0 -10 -2 -10 -5z"/>
<path d="M4172 4858 c-14 -14 -16 -48 -3 -48 9 0 25 49 18 56 -2 2 -9 -2 -15
-8z"/>
<path d="M4393 4810 c0 -36 2 -50 4 -32 2 17 2 47 0 65 -2 17 -4 3 -4 -33z"/>
<path d="M1187 4852 c-4 -5 3 -18 13 -30 11 -12 20 -28 20 -37 0 -8 7 -15 15
-15 12 0 13 4 6 19 -6 10 -8 21 -6 25 3 3 2 4 -2 1 -3 -3 -14 7 -24 21 -9 14
-19 22 -22 16z"/>
<path d="M1581 4844 c0 -11 3 -14 6 -6 3 7 2 16 -1 19 -3 4 -6 -2 -5 -13z"/>
<path d="M2321 4844 c0 -11 3 -14 6 -6 3 7 2 16 -1 19 -3 4 -6 -2 -5 -13z"/>
<path d="M4342 4830 c0 -19 2 -27 5 -17 2 9 2 25 0 35 -3 9 -5 1 -5 -18z"/>
<path d="M4593 4825 c0 -22 2 -30 4 -17 2 12 2 30 0 40 -3 9 -5 -1 -4 -23z"/>
<path d="M1947 4818 c8 -44 13 -48 13 -10 0 17 -4 34 -10 37 -6 4 -7 -6 -3
-27z"/>
<path d="M3980 4840 c0 -5 5 -10 10 -10 6 0 10 5 10 10 0 6 -4 10 -10 10 -5 0
-10 -4 -10 -10z"/>
<path d="M4271 4834 c0 -11 3 -14 6 -6 3 7 2 16 -1 19 -3 4 -6 -2 -5 -13z"/>
<path d="M1259 4809 c-6 -3 -10 -12 -7 -19 2 -8 11 -6 27 7 18 15 20 20 8 20
-9 0 -21 -4 -28 -8z"/>
<path d="M1413 4785 c0 -22 2 -30 4 -17 2 12 2 30 0 40 -3 9 -5 -1 -4 -23z"/>
<path d="M3083 4770 c0 -25 2 -35 4 -22 2 12 2 32 0 45 -2 12 -4 2 -4 -23z"/>
<path d="M3142 4785 c0 -16 2 -22 5 -12 2 9 2 23 0 30 -3 6 -5 -1 -5 -18z"/>
<path d="M4090 4795 c-16 -19 -3 -19 30 0 24 13 24 14 4 15 -12 0 -27 -7 -34
-15z"/>
<path d="M4471 4794 c0 -11 3 -14 6 -6 3 7 2 16 -1 19 -3 4 -6 -2 -5 -13z"/>
<path d="M1381 4784 c0 -11 3 -14 6 -6 3 7 2 16 -1 19 -3 4 -6 -2 -5 -13z"/>
<path d="M2873 4755 c0 -27 2 -38 4 -22 2 15 2 37 0 50 -2 12 -4 0 -4 -28z"/>
<path d="M3042 4775 c0 -16 2 -22 5 -12 2 9 2 23 0 30 -3 6 -5 -1 -5 -18z"/>
<path d="M3458 4734 c-1 -36 0 -68 5 -71 4 -2 7 28 7 66 0 39 -2 71 -4 71 -2
0 -6 -30 -8 -66z"/>
<path d="M3691 4784 c0 -11 3 -14 6 -6 3 7 2 16 -1 19 -3 4 -6 -2 -5 -13z"/>
<path d="M1146 4775 c-9 -26 -7 -32 5 -12 6 10 9 21 6 23 -2 3 -7 -2 -11 -11z"/>
<path d="M4030 4774 c0 -8 5 -12 10 -9 6 3 10 10 10 16 0 5 -4 9 -10 9 -5 0
-10 -7 -10 -16z"/>
<path d="M4631 4774 c0 -11 3 -14 6 -6 3 7 2 16 -1 19 -3 4 -6 -2 -5 -13z"/>
<path d="M1260 4765 c-6 -8 -10 -21 -8 -31 2 -11 7 -6 15 15 13 34 11 38 -7
16z"/>
<path d="M1023 4755 c-7 -8 -9 -16 -4 -19 5 -3 12 1 15 10 8 22 4 25 -11 9z"/>
<path d="M1183 4758 c-6 -7 -14 -20 -18 -28 -8 -13 -7 -13 8 -1 12 9 17 10 17
2 0 -7 5 -9 12 -5 9 6 9 9 1 11 -7 3 -9 11 -6 19 6 17 -1 18 -14 2z"/>
<path d="M2521 4754 c0 -11 3 -14 6 -6 3 7 2 16 -1 19 -3 4 -6 -2 -5 -13z"/>
<path d="M4725 4760 c3 -5 8 -10 11 -10 2 0 4 5 4 10 0 6 -5 10 -11 10 -5 0
-7 -4 -4 -10z"/>
<path d="M1094 4738 l-19 -23 23 19 c21 18 27 26 19 26 -2 0 -12 -10 -23 -22z"/>
<path d="M2811 4744 c0 -11 3 -14 6 -6 3 7 2 16 -1 19 -3 4 -6 -2 -5 -13z"/>
<path d="M1627 4724 c-15 -14 -27 -30 -27 -35 0 -6 14 3 30 21 37 40 35 49 -3
14z"/>
<path d="M3520 4735 c-10 -12 -10 -15 4 -15 9 0 16 7 16 15 0 8 -2 15 -4 15
-2 0 -9 -7 -16 -15z"/>
<path d="M3681 4734 c0 -11 3 -14 6 -6 3 7 2 16 -1 19 -3 4 -6 -2 -5 -13z"/>
<path d="M2052 4735 c0 -5 6 -26 13 -45 7 -19 14 -28 14 -20 0 8 -6 29 -14 45
-7 17 -13 26 -13 20z"/>
<path d="M2556 4715 c-3 -8 -1 -25 4 -37 8 -20 9 -18 9 15 1 39 -3 47 -13 22z"/>
<path d="M1097 4713 c-11 -10 -8 -51 3 -58 6 -4 8 -11 5 -16 -4 -5 -2 -9 4 -9
12 0 26 64 16 79 -7 12 -19 14 -28 4z"/>
<path d="M3072 4695 c0 -16 2 -22 5 -12 2 9 2 23 0 30 -3 6 -5 -1 -5 -18z"/>
<path d="M2604 4697 c3 -10 6 -23 6 -28 0 -5 5 -9 10 -9 14 0 12 13 -6 36 -14
17 -15 17 -10 1z"/>
<path d="M2717 4689 c4 -13 8 -18 11 -10 2 7 -1 18 -6 23 -8 8 -9 4 -5 -13z"/>
<path d="M999 4678 c-1 -7 -1 -18 0 -25 1 -6 -3 -14 -9 -18 -5 -3 -10 -14 -10
-23 1 -15 2 -14 12 2 12 21 21 76 13 76 -3 0 -6 -6 -6 -12z"/>
<path d="M1412 4665 c0 -16 2 -22 5 -12 2 9 2 23 0 30 -3 6 -5 -1 -5 -18z"/>
<path d="M946 4653 c-6 -14 -5 -15 5 -6 7 7 10 15 7 18 -3 3 -9 -2 -12 -12z"/>
<path d="M1350 4645 c-1 -16 -2 -33 -2 -36 1 -3 1 -44 2 -90 2 -81 23 -179 39
-179 5 0 6 12 4 28 -4 26 -4 26 11 8 9 -11 16 -15 16 -9 0 7 -4 15 -10 18 -17
10 -43 116 -50 205 -4 47 -8 72 -10 55z"/>
<path d="M1570 4655 c0 -8 2 -15 4 -15 2 0 6 7 10 15 3 8 1 15 -4 15 -6 0 -10
-7 -10 -15z"/>
<path d="M2659 4654 c0 -10 -2 -27 -4 -36 -2 -10 3 -18 11 -18 10 0 12 8 7 33
-7 39 -13 47 -14 21z"/>
<path d="M2761 4654 c0 -11 3 -14 6 -6 3 7 2 16 -1 19 -3 4 -6 -2 -5 -13z"/>
<path d="M3146 4645 c10 -46 26 -67 18 -25 -3 19 -10 40 -16 45 -6 6 -7 -1 -2
-20z"/>
<path d="M2370 4653 c0 -4 5 -15 10 -23 8 -13 10 -13 10 2 0 9 -4 20 -10 23
-5 3 -10 3 -10 -2z"/>
<path d="M3400 4649 c0 -5 5 -7 10 -4 6 3 10 8 10 11 0 2 -4 4 -10 4 -5 0 -10
-5 -10 -11z"/>
<path d="M3992 4630 c0 -19 2 -27 5 -17 2 9 2 25 0 35 -3 9 -5 1 -5 -18z"/>
<path d="M2610 4630 c0 -5 5 -10 11 -10 5 0 7 5 4 10 -3 6 -8 10 -11 10 -2 0
-4 -4 -4 -10z"/>
<path d="M3684 4625 c-10 -8 -14 -14 -9 -15 15 0 40 18 34 24 -3 3 -14 -1 -25
-9z"/>
<path d="M4312 4615 c0 -16 2 -22 5 -12 2 9 2 23 0 30 -3 6 -5 -1 -5 -18z"/>
<path d="M1546 4608 c-9 -12 -16 -27 -16 -33 1 -5 8 3 16 18 8 16 20 25 26 21
7 -4 8 -3 4 4 -10 16 -13 15 -30 -10z"/>
<path d="M2800 4626 c0 -2 7 -9 15 -16 12 -10 15 -10 15 4 0 9 -7 16 -15 16
-8 0 -15 -2 -15 -4z"/>
<path d="M4611 4614 c0 -11 3 -14 6 -6 3 7 2 16 -1 19 -3 4 -6 -2 -5 -13z"/>
<path d="M1100 4608 c0 -4 5 -8 11 -8 7 0 9 -10 5 -27 -14 -58 -16 -93 -6 -93
5 0 10 11 10 24 0 13 3 43 6 68 5 37 3 45 -10 45 -9 0 -16 -4 -16 -9z"/>
<path d="M2110 4608 c0 -9 7 -19 16 -22 15 -6 15 -4 3 11 -7 10 -15 20 -16 22
-2 2 -3 -3 -3 -11z"/>
<path d="M927 4603 c-9 -9 -9 -71 1 -76 4 -3 7 15 7 39 0 24 0 44 -1 44 0 0
-4 -3 -7 -7z"/>
<path d="M1682 4585 c0 -16 2 -22 5 -12 2 9 2 23 0 30 -3 6 -5 -1 -5 -18z"/>
<path d="M2690 4602 c0 -5 8 -12 18 -16 79 -28 97 -28 35 0 -21 10 -41 19 -45
21 -5 2 -8 0 -8 -5z"/>
<path d="M3623 4593 c-18 -7 -16 -20 2 -20 8 0 16 6 19 14 6 13 0 15 -21 6z"/>
<path d="M1287 4570 c-4 -14 -6 -36 -6 -50 1 -18 4 -14 10 14 10 44 6 75 -4
36z"/>
<path d="M2415 4560 c3 -19 10 -39 15 -44 18 -18 17 -1 -2 39 l-19 40 6 -35z"/>
<path d="M3405 4580 c-3 -5 -1 -10 4 -10 6 0 11 5 11 10 0 6 -2 10 -4 10 -3 0
-8 -4 -11 -10z"/>
<path d="M4720 4578 c0 -9 -4 -18 -9 -20 -12 -4 -24 -48 -14 -48 11 0 37 69
29 77 -3 4 -6 -1 -6 -9z"/>
<path d="M2150 4566 c0 -2 7 -6 15 -10 8 -3 15 -1 15 4 0 6 -7 10 -15 10 -8 0
-15 -2 -15 -4z"/>
<path d="M1416 4495 c3 -33 10 -64 15 -69 12 -13 11 -5 -7 69 l-14 60 6 -60z"/>
<path d="M1620 4535 c-7 -9 -10 -18 -7 -21 3 -3 10 4 17 15 13 25 8 27 -10 6z"/>
<path d="M1996 4542 c-11 -18 2 -68 22 -84 11 -9 14 -9 8 -1 -4 7 -10 32 -14
55 -5 27 -11 38 -16 30z"/>
<path d="M4632 4485 c-1 -33 -4 -85 -7 -115 -5 -53 -4 -54 6 -15 5 22 8 74 6
115 -3 71 -3 72 -5 15z"/>
<path d="M1232 4500 c0 -19 2 -27 5 -17 2 9 2 25 0 35 -3 9 -5 1 -5 -18z"/>
<path d="M2826 4485 c2 -27 9 -54 15 -60 9 -7 10 -3 5 18 -4 18 -2 27 6 27 10
0 10 2 1 8 -7 4 -16 19 -22 32 -8 20 -9 15 -5 -25z"/>
<path d="M1081 4484 c0 -11 3 -14 6 -6 3 7 2 16 -1 19 -3 4 -6 -2 -5 -13z"/>
<path d="M3704 4468 l-19 -23 23 19 c21 18 27 26 19 26 -2 0 -12 -10 -23 -22z"/>
<path d="M3070 4471 c0 -10 19 -25 25 -20 1 2 -3 10 -11 17 -8 7 -14 8 -14 3z"/>
<path d="M3287 4469 c7 -7 15 -10 18 -7 3 3 -2 9 -12 12 -14 6 -15 5 -6 -5z"/>
<path d="M4262 4460 c0 -14 2 -19 5 -12 2 6 2 18 0 25 -3 6 -5 1 -5 -13z"/>
<path d="M1730 4462 c0 -4 14 -16 30 -25 17 -10 30 -16 30 -14 0 2 -13 13 -30
25 -16 13 -30 19 -30 14z"/>
<path d="M2487 4459 c7 -7 15 -10 18 -7 3 3 -2 9 -12 12 -14 6 -15 5 -6 -5z"/>
<path d="M2778 4453 c7 -3 16 -2 19 1 4 3 -2 6 -13 5 -11 0 -14 -3 -6 -6z"/>
<path d="M4105 4430 c-15 -16 -31 -28 -34 -28 -11 3 -61 -25 -61 -34 0 -5 8
-4 19 1 10 6 20 9 22 7 2 -2 24 16 49 40 25 24 42 44 39 44 -3 0 -18 -13 -34
-30z"/>
<path d="M1131 4423 c7 -12 15 -20 18 -17 3 2 -3 12 -13 22 -17 16 -18 16 -5
-5z"/>
<path d="M1302 4420 c0 -14 2 -19 5 -12 2 6 2 18 0 25 -3 6 -5 1 -5 -13z"/>
<path d="M2969 4416 c14 -14 26 -24 29 -22 7 8 -8 25 -31 37 -21 11 -21 10 2
-15z"/>
<path d="M3040 4437 c0 -3 11 -18 25 -33 14 -15 25 -23 25 -17 0 5 -11 20 -25
33 -14 13 -25 21 -25 17z"/>
<path d="M3635 4430 c-3 -5 -1 -10 4 -10 6 0 11 5 11 10 0 6 -2 10 -4 10 -3 0
-8 -4 -11 -10z"/>
<path d="M4234 4426 c-3 -7 -4 -33 -2 -57 3 -43 4 -42 8 14 5 58 4 68 -6 43z"/>
<path d="M1260 4421 c0 -6 5 -13 10 -16 6 -3 10 1 10 9 0 9 -4 16 -10 16 -5 0
-10 -4 -10 -9z"/>
<path d="M2930 4421 c0 -6 4 -13 10 -16 6 -3 7 1 4 9 -7 18 -14 21 -14 7z"/>
<path d="M3165 4411 c-3 -5 -1 -12 5 -16 5 -3 10 1 10 9 0 18 -6 21 -15 7z"/>
<path d="M1782 4370 c-7 -11 -12 -25 -12 -32 1 -7 8 0 16 15 18 33 14 46 -4
17z"/>
<path d="M2480 4383 c0 -1 17 -11 38 -21 33 -17 43 -18 90 -7 29 7 56 16 60
20 7 6 -51 -1 -90 -12 -11 -2 -18 1 -18 9 0 10 -3 9 -10 -2 -5 -8 -10 -10 -10
-4 0 7 -13 14 -30 16 -16 3 -30 3 -30 1z"/>
<path d="M2970 4386 c0 -2 8 -10 18 -17 15 -13 16 -12 3 4 -13 16 -21 21 -21
13z"/>
<path d="M3990 4380 c0 -5 0 -13 1 -16 0 -4 -5 -11 -13 -15 -10 -7 -9 -9 5 -9
12 0 17 8 17 25 0 14 -2 25 -5 25 -3 0 -5 -4 -5 -10z"/>
<path d="M1301 4367 c2 -1 13 -9 24 -17 19 -14 19 -14 6 3 -7 9 -18 17 -24 17
-6 0 -8 -1 -6 -3z"/>
<path d="M2029 4359 c19 -6 37 -7 42 -2 5 5 -9 10 -33 10 l-43 2 34 -10z"/>
<path d="M4120 4350 c0 -5 5 -10 10 -10 6 0 10 5 10 10 0 6 -4 10 -10 10 -5 0
-10 -4 -10 -10z"/>
<path d="M3084 4325 c3 -23 12 -26 13 -5 1 11 -2 20 -7 20 -4 0 -7 -7 -6 -15z"/>
<path d="M3878 4333 c7 -3 16 -2 19 1 4 3 -2 6 -13 5 -11 0 -14 -3 -6 -6z"/>
<path d="M1355 4320 c3 -5 8 -10 11 -10 2 0 4 5 4 10 0 6 -5 10 -11 10 -5 0
-7 -4 -4 -10z"/>
<path d="M1417 4312 c-18 -19 -24 -57 -8 -48 9 6 7 -39 -4 -66 -5 -13 -2 -15
12 -12 20 5 49 64 32 64 -5 0 -7 11 -3 25 5 19 2 25 -11 25 -14 0 -15 3 -5 15
18 21 6 19 -13 -3z"/>
<path d="M2108 4323 c7 -3 16 -2 19 1 4 3 -2 6 -13 5 -11 0 -14 -3 -6 -6z"/>
<path d="M2153 4313 c9 -2 23 -2 30 0 6 3 -1 5 -18 5 -16 0 -22 -2 -12 -5z"/>
<path d="M2209 4303 c-13 -15 -12 -15 11 -3 34 17 36 20 18 20 -9 0 -22 -7
-29 -17z"/>
<path d="M3150 4312 c0 -15 109 -72 116 -61 3 5 -7 14 -23 19 -40 15 -45 18
-70 36 -13 9 -23 12 -23 6z"/>
<path d="M4422 4300 c0 -14 2 -19 5 -12 2 6 2 18 0 25 -3 6 -5 1 -5 -13z"/>
<path d="M1830 4300 c0 -5 7 -10 15 -10 8 0 15 5 15 10 0 6 -7 10 -15 10 -8 0
-15 -4 -15 -10z"/>
<path d="M1885 4300 c-3 -5 1 -10 9 -10 9 0 16 5 16 10 0 6 -4 10 -9 10 -6 0
-13 -4 -16 -10z"/>
<path d="M4611 4294 c0 -11 3 -14 6 -6 3 7 2 16 -1 19 -3 4 -6 -2 -5 -13z"/>
<path d="M3462 4270 c-7 -18 -7 -32 -1 -35 5 -4 9 -5 10 -3 4 21 8 68 5 68 -2
0 -9 -13 -14 -30z"/>
<path d="M4120 4260 c0 -16 4 -30 8 -30 5 0 7 14 4 30 -2 17 -6 30 -8 30 -2 0
-4 -13 -4 -30z"/>
<path d="M4043 4245 c0 -22 2 -30 4 -17 2 12 2 30 0 40 -3 9 -5 -1 -4 -23z"/>
<path d="M4216 4269 c-6 -20 -17 -203 -12 -198 7 6 26 202 21 208 -3 2 -7 -2
-9 -10z"/>
<path d="M4502 4260 c0 -14 2 -19 5 -12 2 6 2 18 0 25 -3 6 -5 1 -5 -13z"/>
<path d="M4642 4216 c-14 -76 -15 -104 -3 -90 8 9 26 154 18 154 -2 0 -9 -29
-15 -64z"/>
<path d="M4277 4250 c-3 -11 -1 -20 4 -20 5 0 9 9 9 20 0 11 -2 20 -4 20 -2 0
-6 -9 -9 -20z"/>
<path d="M1338 4219 c-10 -10 -14 -19 -10 -19 5 0 17 9 27 20 10 11 14 20 9
19 -5 0 -17 -9 -26 -20z"/>
<path d="M3910 4220 c0 -11 0 -21 0 -22 -4 -17 -18 -79 -24 -98 l-7 -25 15 26
c16 28 34 139 22 139 -3 0 -6 -9 -6 -20z"/>
<path d="M3581 4214 c0 -11 3 -14 6 -6 3 7 2 16 -1 19 -3 4 -6 -2 -5 -13z"/>
<path d="M3338 4213 c7 -3 16 -2 19 1 4 3 -2 6 -13 5 -11 0 -14 -3 -6 -6z"/>
<path d="M4115 4210 c3 -5 8 -10 11 -10 2 0 4 5 4 10 0 6 -5 10 -11 10 -5 0
-7 -4 -4 -10z"/>
<path d="M4266 4198 c-7 -26 -8 -94 -2 -87 9 8 23 109 16 109 -4 0 -10 -10
-14 -22z"/>
<path d="M4411 4204 c0 -11 3 -14 6 -6 3 7 2 16 -1 19 -3 4 -6 -2 -5 -13z"/>
<path d="M3410 4185 c0 -8 2 -15 4 -15 2 0 6 7 10 15 3 8 1 15 -4 15 -6 0 -10
-7 -10 -15z"/>
<path d="M4586 4185 c-3 -9 -6 -26 -5 -38 1 -16 4 -12 10 12 10 34 6 55 -5 26z"/>
<path d="M4117 4169 c4 -13 8 -18 11 -10 2 7 -1 18 -6 23 -8 8 -9 4 -5 -13z"/>
<path d="M4161 4174 c0 -11 3 -14 6 -6 3 7 2 16 -1 19 -3 4 -6 -2 -5 -13z"/>
<path d="M3180 4170 c0 -5 5 -10 11 -10 5 0 7 5 4 10 -3 6 -8 10 -11 10 -2 0
-4 -4 -4 -10z"/>
<path d="M4482 4160 c0 -14 2 -19 5 -12 2 6 2 18 0 25 -3 6 -5 1 -5 -13z"/>
<path d="M3343 4130 c0 -25 2 -35 4 -22 2 12 2 32 0 45 -2 12 -4 2 -4 -23z"/>
<path d="M4398 4160 c-19 -48 -36 -110 -27 -105 5 4 9 14 10 23 0 14 2 14 10
-3 8 -17 9 -16 6 7 -2 15 0 29 5 30 6 2 8 17 6 33 -3 19 -6 25 -10 15z"/>
<path d="M3581 4144 c0 -11 3 -14 6 -6 3 7 2 16 -1 19 -3 4 -6 -2 -5 -13z"/>
<path d="M4160 4098 c0 -28 2 -49 4 -47 8 9 13 99 5 99 -5 0 -9 -23 -9 -52z"/>
<path d="M3807 4126 c-4 -10 -5 -21 -2 -24 9 -9 17 6 13 25 -3 17 -4 17 -11
-1z"/>
<path d="M4106 4081 c-4 -29 -5 -55 -2 -58 6 -7 19 83 14 99 -3 7 -8 -11 -12
-41z"/>
<path d="M4252 4080 c0 -14 2 -19 5 -12 2 6 2 18 0 25 -3 6 -5 1 -5 -13z"/>
<path d="M4520 4079 c0 -5 5 -7 10 -4 6 3 10 8 10 11 0 2 -4 4 -10 4 -5 0 -10
-5 -10 -11z"/>
<path d="M4232 4055 c0 -16 2 -22 5 -12 2 9 2 23 0 30 -3 6 -5 -1 -5 -18z"/>
<path d="M3337 4031 c4 -16 1 -21 -15 -21 -27 0 -35 -15 -17 -30 13 -11 14
-10 9 4 -4 11 -1 16 11 16 9 0 13 -4 10 -10 -3 -5 1 -10 10 -10 26 0 8 -17
-24 -23 -32 -7 -74 -45 -65 -59 3 -5 0 -15 -6 -23 -10 -12 -9 -15 5 -15 9 0
19 -9 22 -21 6 -20 6 -20 29 2 13 12 24 30 24 38 0 12 -6 9 -20 -9 -17 -21
-21 -23 -30 -10 -22 34 -4 65 31 52 18 -7 28 -4 42 10 9 10 13 18 7 18 -18 0
-11 20 8 20 9 0 25 7 35 14 16 12 14 14 -18 20 -29 6 -35 11 -33 28 2 12 -2
23 -9 25 -7 3 -9 -3 -6 -16z"/>
<path d="M2465 3980 c-44 -9 -73 -19 -65 -22 8 -2 -13 -4 -45 -4 -33 0 -102
-6 -154 -13 -76 -11 -95 -17 -98 -32 -3 -11 -10 -19 -16 -19 -6 0 -7 -3 -4 -7
4 -3 -1 -12 -11 -19 -14 -11 -9 -12 38 -11 47 2 56 -1 66 -21 14 -29 29 -42
21 -19 -5 12 -1 17 11 17 15 0 15 2 2 11 -13 9 -12 10 2 5 26 -8 132 15 116
25 -11 7 -11 9 0 9 8 0 25 9 39 20 14 11 35 20 45 20 11 0 34 7 51 14 18 8 47
19 65 23 17 4 32 12 31 17 0 5 5 13 13 17 19 13 -12 9 -107 -11z"/>
<path d="M4485 3989 c-4 -6 -5 -12 -2 -15 2 -3 7 2 10 11 7 17 1 20 -8 4z"/>
<path d="M4440 3935 c-7 -9 -11 -18 -8 -20 3 -3 11 1 18 10 7 9 11 18 8 20 -3
3 -11 -1 -18 -10z"/>
<path d="M3736 3915 c8 -37 14 -45 14 -19 0 10 -5 26 -10 34 -8 11 -9 7 -4
-15z"/>
<path d="M1595 3880 c-3 -5 1 -17 10 -27 9 -10 29 -35 45 -56 l28 -38 -35 -62
c-19 -34 -39 -72 -44 -84 -5 -13 -13 -23 -18 -23 -5 0 -11 -7 -15 -15 -10 -26
39 12 52 40 18 40 28 29 28 -27 -1 -29 2 -69 6 -88 4 -21 6 2 5 60 -1 83 3
102 26 154 15 32 27 66 26 75 0 10 -4 7 -11 -9 l-10 -25 -10 25 c-5 14 -8 38
-8 55 1 16 2 36 1 43 -1 14 -67 17 -76 2z"/>
<path d="M3993 3855 c0 -22 2 -30 4 -17 2 12 2 30 0 40 -3 9 -5 -1 -4 -23z"/>
<path d="M1680 3838 c0 -19 2 -20 10 -8 13 19 13 30 0 30 -5 0 -10 -10 -10
-22z"/>
<path d="M2013 3840 c-34 -14 -28 -21 7 -9 17 6 30 13 30 15 0 6 -12 4 -37 -6z"/>
<path d="M3140 3835 c-14 -8 -20 -14 -15 -14 6 0 21 6 35 14 14 8 21 14 15 14
-5 0 -21 -6 -35 -14z"/>
<path d="M4380 3818 c-37 -42 -37 -42 -8 -24 23 15 44 45 36 51 -2 1 -14 -11
-28 -27z"/>
<path d="M2293 3823 c9 -2 23 -2 30 0 6 3 -1 5 -18 5 -16 0 -22 -2 -12 -5z"/>
<path d="M4299 3735 c-19 -19 -39 -35 -46 -35 -7 0 -13 -6 -13 -14 0 -8 -3
-23 -6 -33 -4 -10 6 -1 21 20 16 20 31 37 35 37 3 0 16 14 28 30 30 40 21 38
-19 -5z"/>
<path d="M4257 3743 c-4 -3 -7 -11 -7 -17 0 -6 5 -5 12 2 6 6 9 14 7 17 -3 3
-9 2 -12 -2z"/>
<path d="M4347 3731 c-4 -17 -3 -21 5 -13 5 5 8 16 6 23 -3 8 -7 3 -11 -10z"/>
<path d="M2820 3720 c-8 -5 -10 -10 -5 -10 6 0 17 5 25 10 8 5 11 10 5 10 -5
0 -17 -5 -25 -10z"/>
<path d="M3902 3670 c0 -19 2 -27 5 -17 2 9 2 25 0 35 -3 9 -5 1 -5 -18z"/>
<path d="M4201 3684 c0 -11 3 -14 6 -6 3 7 2 16 -1 19 -3 4 -6 -2 -5 -13z"/>
<path d="M2710 3680 c-8 -5 -10 -10 -5 -10 6 0 17 5 25 10 8 5 11 10 5 10 -5
0 -17 -5 -25 -10z"/>
<path d="M3856 3661 c-16 -84 -17 -96 -7 -81 12 17 26 98 18 106 -3 3 -8 -8
-11 -25z"/>
<path d="M3972 3625 c0 -16 2 -22 5 -12 2 9 2 23 0 30 -3 6 -5 -1 -5 -18z"/>
<path d="M1520 3629 c0 -8 7 -24 15 -35 11 -15 14 -16 15 -3 0 8 -7 24 -15 35
-11 15 -14 16 -15 3z"/>
<path d="M3350 3620 c0 -11 4 -20 9 -20 5 0 7 9 4 20 -3 11 -7 20 -9 20 -2 0
-4 -9 -4 -20z"/>
<path d="M3891 3604 c0 -11 3 -14 6 -6 3 7 2 16 -1 19 -3 4 -6 -2 -5 -13z"/>
<path d="M4060 3600 c0 -5 5 -10 10 -10 6 0 10 5 10 10 0 6 -4 10 -10 10 -5 0
-10 -4 -10 -10z"/>
<path d="M1190 3555 c0 -8 5 -15 10 -15 6 0 10 7 10 15 0 8 -4 15 -10 15 -5 0
-10 -7 -10 -15z"/>
<path d="M2380 3560 c-9 -6 -10 -10 -3 -10 6 0 15 5 18 10 8 12 4 12 -15 0z"/>
<path d="M1687 3543 c-10 -9 -9 -23 2 -23 5 0 11 7 15 15 5 15 -5 20 -17 8z"/>
<path d="M2150 3490 c0 -27 4 -51 8 -54 4 -2 7 15 6 40 -2 37 1 44 17 44 10 0
19 -4 19 -10 0 -5 9 -10 20 -10 18 0 30 20 13 20 -5 0 -25 4 -45 9 l-38 9 0
-48z"/>
<path d="M4230 3511 c0 -10 -7 -24 -15 -31 -8 -7 -15 -17 -15 -22 0 -6 6 -6
14 1 18 16 38 71 25 71 -5 0 -9 -8 -9 -19z"/>
<path d="M4248 3475 c-6 -14 -15 -25 -19 -25 -10 0 -20 -29 -25 -74 -5 -50 -2
-46 34 47 28 73 35 106 10 52z"/>
<path d="M4173 3421 c-10 -11 -27 -31 -38 -46 -11 -14 -28 -36 -38 -47 -9 -12
-15 -23 -13 -25 9 -9 38 12 52 39 8 16 19 26 24 23 6 -4 10 2 10 12 0 10 7 29
16 41 19 27 10 29 -13 3z"/>
<path d="M3430 3409 c0 -5 5 -7 10 -4 6 3 10 8 10 11 0 2 -4 4 -10 4 -5 0 -10
-5 -10 -11z"/>
<path d="M3334 3336 c-3 -17 -13 -44 -22 -61 l-15 -30 22 19 c11 11 21 27 21
38 0 10 9 27 19 37 19 19 19 19 1 24 -15 4 -20 -2 -26 -27z"/>
<path d="M3721 3344 c0 -11 3 -14 6 -6 3 7 2 16 -1 19 -3 4 -6 -2 -5 -13z"/>
<path d="M4166 3240 c-17 -41 -25 -77 -21 -87 5 -14 11 -6 24 32 17 49 35 125
29 125 -2 0 -16 -31 -32 -70z"/>
<path d="M1575 3290 c3 -5 8 -10 11 -10 2 0 4 5 4 10 0 6 -5 10 -11 10 -5 0
-7 -4 -4 -10z"/>
<path d="M3805 3280 c3 -5 8 -10 11 -10 2 0 4 5 4 10 0 6 -5 10 -11 10 -5 0
-7 -4 -4 -10z"/>
<path d="M4060 3269 c-16 -30 -8 -31 13 -3 10 13 13 24 8 24 -6 0 -15 -9 -21
-21z"/>
<path d="M1610 3267 c0 -8 7 -20 15 -27 12 -10 15 -10 15 3 0 8 -7 20 -15 27
-12 10 -15 10 -15 -3z"/>
<path d="M3841 3254 c0 -11 3 -14 6 -6 3 7 2 16 -1 19 -3 4 -6 -2 -5 -13z"/>
<path d="M1780 3196 c0 -2 8 -10 18 -17 15 -13 16 -12 3 4 -13 16 -21 21 -21
13z"/>
<path d="M3894 3182 c0 -10 6 -19 14 -19 7 0 12 7 10 15 -4 22 -24 25 -24 4z"/>
<path d="M3930 3142 c0 -13 4 -21 9 -18 11 7 72 -99 67 -116 -12 -37 -15 -78
-6 -73 6 3 10 22 10 41 0 19 3 34 8 34 15 0 42 -64 43 -103 1 -23 5 -53 9 -67
6 -20 8 -14 9 28 1 48 3 52 19 43 17 -9 20 -28 25 -173 3 -90 4 -164 2 -166
-5 -5 -27 104 -35 173 -7 59 -7 59 -10 15 -1 -25 -2 -48 -2 -51 1 -9 24 -170
29 -209 3 -19 12 -39 19 -43 8 -4 14 -20 13 -35 l-1 -27 -8 25 c-7 21 -8 22
-9 5 -2 -41 12 -95 24 -95 7 0 12 8 11 18 -1 11 5 16 17 14 13 -2 17 4 17 26
0 16 -7 35 -15 42 -28 23 -36 90 -40 316 -3 184 -2 224 10 224 20 0 7 35 -29
73 -17 18 -25 26 -18 17 6 -9 12 -22 12 -28 0 -6 8 -18 17 -28 13 -13 14 -19
5 -22 -6 -2 -12 -17 -12 -33 0 -35 -12 -38 -28 -6 -15 32 -26 87 -12 67 8 -12
10 -9 10 13 0 15 -4 27 -9 27 -5 0 -11 10 -13 22 -4 27 -25 35 -31 11 -4 -15
-5 -14 -6 4 -1 25 -21 42 -21 19 0 -31 -20 -15 -21 17 -1 17 -3 24 -6 15 -6
-24 -19 -23 -37 4 l-16 22 0 -22z m110 -115 c0 -5 -4 -5 -10 -2 -5 3 -10 14
-10 23 0 15 2 15 10 2 5 -8 10 -19 10 -23z m140 -637 c0 -5 -7 -10 -15 -10 -8
0 -15 5 -15 10 0 6 7 10 15 10 8 0 15 -4 15 -10z"/>
<path d="M4153 3080 c0 -30 2 -43 4 -27 2 15 2 39 0 55 -2 15 -4 2 -4 -28z"/>
<path d="M1740 2990 c18 -12 68 -12 95 0 14 6 0 9 -45 9 -45 1 -60 -2 -50 -9z"/>
<path d="M1756 2881 c-10 -15 19 -73 44 -89 12 -7 20 -8 20 -2 0 5 -5 10 -11
10 -5 0 -8 4 -4 9 3 5 0 13 -6 17 -6 3 -17 20 -24 36 -7 18 -15 26 -19 19z"/>
<path d="M1842 2690 c0 -19 2 -27 5 -17 2 9 2 25 0 35 -3 9 -5 1 -5 -18z"/>
<path d="M2718 2588 c-66 -34 -75 -42 -63 -54 25 -26 60 -16 109 31 26 25 44
49 41 55 -3 5 -7 10 -8 9 -1 0 -37 -18 -79 -41z"/>
<path d="M2300 2440 c-9 -6 -10 -10 -3 -10 6 0 15 5 18 10 8 12 4 12 -15 0z"/>
<path d="M4427 2059 c7 -7 15 -10 18 -7 3 3 -2 9 -12 12 -14 6 -15 5 -6 -5z"/>
<path d="M4352 2014 c10 -10 20 -16 22 -13 3 3 -5 11 -17 18 -21 13 -21 12 -5
-5z"/>
<path d="M4440 1990 c-13 -8 -12 -10 3 -10 9 0 17 5 17 10 0 12 -1 12 -20 0z"/>
<path d="M4373 1959 c-35 -22 -46 -37 -15 -20 22 13 58 40 52 41 -3 0 -20 -10
-37 -21z"/>
<path d="M3364 1944 c-18 -14 -18 -15 4 -4 12 6 22 13 22 15 0 8 -5 6 -26 -11z"/>
<path d="M3299 1899 c-23 -19 -23 -20 -2 -10 12 6 25 16 28 21 10 16 -1 12
-26 -11z"/>
<path d="M4275 1894 c-19 -15 -22 -21 -9 -15 18 9 52 41 43 41 -2 0 -17 -12
-34 -26z"/>
<path d="M3219 1843 l-24 -28 30 25 c17 14 32 26 34 28 2 1 0 2 -6 2 -5 0 -20
-12 -34 -27z"/>
<path d="M4201 1850 c-30 -26 -14 -26 19 0 14 11 21 20 15 19 -5 0 -21 -9 -34
-19z"/>
<path d="M4725 1849 c5 -19 2 -28 -10 -33 -9 -3 -15 -14 -13 -23 2 -12 -3 -17
-16 -16 -16 1 -15 -3 8 -24 15 -14 30 -22 34 -18 4 4 -1 13 -11 20 -13 9 -15
15 -6 20 6 4 15 1 20 -6 7 -12 9 -11 10 1 3 38 -4 86 -13 95 -6 7 -7 1 -3 -16z"/>
<path d="M2961 1836 c0 -11 -12 -34 -26 -52 -14 -18 -25 -36 -25 -41 0 -5 -11
-25 -25 -45 -23 -34 -33 -68 -19 -68 32 0 104 95 90 119 -4 5 2 14 11 20 10 5
15 13 11 17 -4 4 -15 1 -25 -7 -17 -13 -16 -12 0 14 10 16 16 36 14 45 -4 14
-5 14 -6 -2z"/>
<path d="M3123 1770 c-28 -22 -53 -36 -55 -31 -5 12 -152 -86 -162 -109 -5
-11 -15 -20 -23 -20 -14 0 -83 -69 -83 -83 0 -5 17 8 38 27 20 20 66 58 102
83 36 26 67 50 70 54 5 7 52 33 60 34 9 1 99 65 105 75 10 16 3 12 -52 -30z"/>
<path d="M4080 1779 c-24 -16 -41 -29 -36 -29 9 0 96 50 96 56 0 9 -17 1 -60
-27z"/>
<path d="M4802 1750 c1 -13 9 -25 16 -28 17 -5 15 23 -4 39 -14 11 -15 10 -12
-11z"/>
<path d="M4540 1756 c0 -2 7 -6 15 -10 8 -3 15 -1 15 4 0 6 -7 10 -15 10 -8 0
-15 -2 -15 -4z"/>
<path d="M4598 1736 c-17 -12 -17 -14 3 -32 11 -10 18 -26 16 -35 -3 -12 0
-16 9 -12 8 3 21 0 29 -7 8 -7 15 -8 15 -2 0 5 -7 15 -15 22 -9 7 -13 15 -10
18 2 3 -5 13 -16 23 -12 10 -18 23 -14 28 8 14 4 13 -17 -3z"/>
<path d="M4740 1704 c1 -11 29 -61 30 -54 5 19 6 49 2 45 -3 -3 -11 0 -19 6
-7 6 -13 8 -13 3z"/>
<path d="M3029 1683 c-13 -16 -12 -17 4 -4 16 13 21 21 13 21 -2 0 -10 -8 -17
-17z"/>
<path d="M4457 1679 c-4 -15 -2 -19 10 -15 8 3 17 6 19 6 10 0 3 18 -10 23 -8
3 -16 -2 -19 -14z"/>
<path d="M4841 1678 c-1 -9 10 -30 24 -45 13 -15 25 -23 25 -17 0 5 -8 19 -18
30 -11 11 -22 26 -25 34 -4 12 -6 11 -6 -2z"/>
<path d="M4870 1680 c0 -5 5 -10 11 -10 5 0 7 5 4 10 -3 6 -8 10 -11 10 -2 0
-4 -4 -4 -10z"/>
<path d="M2814 1655 c-20 -30 -10 -47 11 -19 14 18 20 44 10 44 -2 0 -12 -11
-21 -25z"/>
<path d="M4330 1671 c0 -5 5 -13 10 -16 6 -3 10 -2 10 4 0 5 -4 13 -10 16 -5
3 -10 2 -10 -4z"/>
<path d="M4505 1662 c10 -7 30 -36 42 -61 3 -7 1 -22 -6 -32 -23 -37 7 -18 33
21 29 44 33 58 11 40 -16 -13 -33 -6 -53 22 -7 10 -19 18 -25 18 -8 0 -8 -3
-2 -8z"/>
<path d="M2979 1633 l-24 -28 28 24 c25 23 32 31 24 31 -2 0 -14 -12 -28 -27z"/>
<path d="M3879 1633 c-13 -16 -12 -17 4 -4 16 13 21 21 13 21 -2 0 -10 -8 -17
-17z"/>
<path d="M4365 1639 c-4 -6 -5 -12 -2 -15 2 -3 7 2 10 11 7 17 1 20 -8 4z"/>
<path d="M4427 1624 c-9 -13 -23 -21 -30 -19 -6 3 -17 -7 -24 -21 -10 -22 -10
-24 3 -14 10 9 14 9 14 1 0 -6 5 -11 10 -11 6 0 10 8 10 17 0 9 10 27 22 40
12 13 20 25 17 27 -2 2 -12 -7 -22 -20z"/>
<path d="M3788 1584 c-16 -8 -28 -16 -28 -18 0 -9 40 7 51 20 14 17 11 17 -23
-2z"/>
<path d="M4258 1576 c-4 -17 -1 -23 9 -19 15 6 18 29 4 37 -5 3 -11 -5 -13
-18z"/>
<path d="M4750 1594 c0 -13 85 -219 91 -222 4 -2 5 -19 2 -38 -5 -32 10 -50
19 -22 3 8 10 4 17 -11 10 -18 10 -25 0 -35 -9 -8 -10 -8 -5 1 10 18 -10 25
-24 8 -10 -12 -10 -15 0 -15 6 0 10 -6 7 -12 -2 -7 2 -26 11 -43 8 -16 16 -48
17 -70 4 -57 46 -225 55 -220 12 7 40 -78 40 -121 0 -29 -4 -41 -14 -41 -15 0
-29 45 -62 197 -27 126 -45 171 -68 168 -10 -2 -21 4 -23 12 -4 13 -3 13 6 0
18 -25 14 10 -7 66 -11 27 -34 96 -52 154 -50 157 -68 190 -101 190 -38 0 -41
-9 -18 -59 10 -24 19 -51 19 -60 0 -9 4 -21 8 -26 5 -6 15 -37 22 -70 7 -33
19 -70 28 -83 8 -12 12 -25 10 -28 -3 -2 5 -41 18 -86 24 -85 23 -98 -2 -98
-8 0 -12 -4 -9 -10 14 -22 13 -47 -2 -47 -9 0 -13 7 -10 19 3 10 1 18 -4 18
-5 0 -9 9 -9 19 0 10 -7 22 -16 25 -12 5 -14 10 -5 20 6 7 8 16 4 20 -4 3 -8
17 -10 29 -8 66 -15 87 -25 81 -6 -4 -8 1 -3 15 4 15 3 21 -7 19 -8 -2 -12 5
-11 20 2 12 -2 22 -8 22 -5 0 -7 5 -4 10 4 6 2 16 -4 23 -5 7 -12 24 -15 37
-2 14 -11 41 -20 60 -15 34 -15 34 -16 8 0 -15 5 -39 12 -55 6 -15 12 -41 13
-58 2 -16 12 -64 24 -105 56 -204 63 -232 53 -242 -10 -10 -35 55 -47 125 -5
25 -12 36 -20 33 -9 -3 -11 2 -7 16 4 17 2 20 -11 15 -11 -4 -14 -2 -10 8 3 8
10 12 16 8 7 -4 8 0 4 11 -4 10 -7 23 -7 29 -1 7 -7 1 -16 -13 -8 -14 -14 -18
-12 -10 2 19 -22 70 -34 70 -5 0 -6 5 -3 10 3 6 1 10 -4 10 -11 0 -37 51 -66
132 -10 26 -24 53 -32 60 -15 12 -14 5 4 -67 4 -18 3 -18 -12 3 -9 12 -20 22
-26 22 -14 0 -11 -37 5 -43 7 -3 16 -24 20 -47 3 -22 13 -43 21 -46 13 -5 48
-103 60 -166 6 -28 28 -91 37 -103 10 -15 68 -231 68 -255 0 -11 5 -20 11 -20
7 0 9 9 6 21 -4 15 -3 19 4 12 6 -6 10 -21 11 -34 1 -13 12 -57 25 -98 45
-140 63 -239 73 -413 5 -95 10 -185 10 -200 0 -16 5 -28 10 -28 6 0 10 51 9
139 -1 77 2 144 6 150 19 31 25 -2 27 -141 1 -84 3 -132 5 -105 4 47 17 62 27
30 3 -10 3 37 1 104 -3 83 -1 124 6 129 8 4 9 26 5 65 -4 35 -3 59 2 59 18 0
22 -30 23 -191 0 -144 2 -159 16 -147 16 13 15 112 -3 398 -3 56 -2 80 4 70
17 -26 32 -179 32 -322 0 -105 3 -137 13 -135 8 1 13 -15 15 -50 4 -66 22 -70
22 -6 0 51 15 50 24 -2 2 -17 5 -32 5 -35 1 -3 6 2 11 10 5 8 10 38 10 65 0
33 -3 45 -9 36 -6 -9 -11 13 -15 65 -4 43 -8 102 -11 130 -4 39 -1 53 9 57 8
3 17 3 20 0 3 -4 7 -54 7 -112 1 -58 3 -98 6 -88 2 9 9 17 14 17 5 0 7 31 4
72 -2 40 -7 129 -11 198 -3 69 -8 128 -11 132 -2 5 0 15 5 24 10 18 28 -83 39
-218 3 -43 9 -78 14 -78 4 0 10 -8 12 -17 3 -10 3 15 0 55 -3 50 -1 72 6 67 6
-3 11 -13 11 -21 0 -8 5 -14 10 -14 15 0 12 61 -4 93 -10 18 -11 27 -3 27 6 0
4 6 -5 12 -16 13 -27 52 -34 123 -3 22 -16 76 -29 120 -43 143 -43 153 1 120
21 -16 35 -19 33 -7 -1 4 -1 14 0 22 1 13 3 12 11 -1 9 -16 77 -207 85 -239 2
-8 13 -53 24 -100 23 -94 26 -124 11 -115 -15 9 -12 -5 10 -50 11 -22 20 -58
20 -80 1 -22 5 -60 8 -85 8 -50 -4 -170 -19 -185 -6 -5 -9 -2 -9 10 0 10 -2
16 -5 13 -8 -8 5 -58 15 -58 5 0 12 15 16 32 4 18 9 36 10 41 1 4 2 18 3 32 2
38 21 30 21 -9 0 -39 25 -106 40 -106 13 0 13 17 0 25 -5 3 -10 28 -10 54 0
163 -67 599 -105 681 -15 33 -16 33 -9 5 10 -45 10 -64 -1 -65 -5 -1 -15 17
-22 40 -7 23 -25 76 -41 118 -30 78 -51 176 -34 157 5 -5 17 -31 26 -57 10
-27 21 -48 24 -48 8 0 32 -72 32 -95 0 -8 4 -15 9 -15 4 0 7 12 5 28 -9 68 68
-189 81 -271 34 -219 46 -316 52 -419 7 -122 25 -143 33 -37 4 55 7 61 17 44
6 -11 15 -16 20 -12 11 11 17 267 6 267 -4 0 -6 -48 -5 -106 3 -68 0 -110 -7
-117 -6 -6 -11 -7 -11 -2 0 6 -7 48 -15 95 -9 47 -22 135 -30 195 -8 61 -17
124 -20 140 -5 28 -5 28 5 6 6 -13 13 -22 15 -19 8 8 -42 133 -51 129 -20 -9
-92 188 -73 200 7 4 8 16 3 30 l-8 24 -7 -25 c-6 -20 -7 -18 -7 15 1 22 -2 55
-6 73 -3 17 -3 32 2 32 10 0 40 -58 48 -95 10 -47 56 -145 65 -140 9 6 33 -67
55 -165 16 -72 18 -107 4 -75 -5 12 -7 -11 -4 -60 3 -73 6 -81 33 -102 35 -28
45 -66 62 -236 14 -145 32 -166 37 -43 2 52 -6 127 -22 220 -14 77 -30 176
-36 220 -17 128 -89 377 -123 426 -9 13 -17 36 -17 50 0 32 -40 112 -59 118
-11 4 -12 -3 -7 -29 4 -19 9 -43 10 -55 2 -11 7 -27 11 -35 4 -8 -9 4 -31 26
-21 22 -48 61 -61 88 -12 26 -27 47 -33 47 -16 0 -12 -25 10 -49 20 -24 45
-89 37 -97 -2 -3 -12 8 -22 23 -10 15 -28 38 -41 51 -12 12 -25 35 -29 50 -4
15 -20 57 -36 94 -16 36 -30 79 -32 95 -2 15 -9 39 -16 52 -12 22 -14 23 -23
6 -8 -13 -5 -30 10 -64 54 -121 91 -215 87 -220 -9 -8 -22 13 -40 64 -9 28
-23 61 -30 75 -6 14 -25 59 -40 100 -30 79 -57 129 -62 114 -2 -6 8 -38 22
-74 14 -35 23 -65 21 -67 -2 -2 -12 17 -22 44 -22 60 -45 94 -61 88 -6 -2 -14
3 -17 11 -3 8 -11 14 -18 14 -7 0 -19 14 -26 30 -12 26 -32 41 -32 24z m-42
-171 c31 -88 70 -228 93 -333 38 -175 47 -215 68 -293 16 -64 26 -155 22 -201
-1 -5 -8 -3 -16 4 -8 6 -23 9 -33 6 -17 -6 -21 4 -36 81 -10 49 -21 107 -27
130 -11 52 -11 53 0 53 5 0 20 -45 32 -99 13 -55 27 -97 31 -95 5 3 11 -9 14
-26 4 -17 11 -33 15 -36 12 -7 11 -1 -10 64 -19 58 -39 156 -48 227 -2 21 -6
42 -8 46 -3 3 -7 31 -11 60 -4 30 -13 77 -20 104 -8 28 -21 79 -30 115 -9 36
-25 92 -36 125 -27 78 -38 125 -28 125 4 0 17 -26 28 -57z m198 -209 c4 -21
10 -31 14 -24 5 8 9 7 13 -4 3 -8 1 -16 -5 -18 -6 -2 -4 -11 6 -21 10 -9 12
-17 6 -17 -20 0 -40 27 -40 54 0 14 -4 28 -10 31 -13 8 -13 35 0 35 5 0 12
-16 16 -36z m-286 -168 c0 -26 -6 -18 -14 19 -5 22 -4 26 4 15 5 -8 10 -24 10
-34z m641 -33 c18 -47 8 -58 -16 -18 -14 22 -25 43 -25 47 0 17 32 -7 41 -29z
m-671 -51 c0 -7 -4 -10 -10 -7 -5 3 -10 16 -10 28 0 18 2 19 10 7 5 -8 10 -21
10 -28z m316 -137 c27 -113 27 -115 15 -115 -5 0 -16 35 -24 78 -8 42 -22 103
-31 135 -9 32 -16 63 -15 70 1 22 30 -66 55 -168z m-194 81 c-9 -15 -22 22
-15 41 6 16 8 15 13 -7 4 -14 5 -29 2 -34z m-12 -72 c0 -8 4 -13 9 -10 5 4 12
0 14 -6 3 -7 6 -2 6 11 2 41 18 12 40 -69 24 -84 27 -125 10 -114 -8 5 -10 -1
-6 -18 4 -14 9 -65 12 -114 3 -67 2 -79 -5 -49 -5 22 -9 56 -9 76 -1 20 -8 42
-16 49 -8 7 -15 20 -16 29 0 12 -2 11 -9 -4 -7 -17 -9 -16 -9 11 -1 17 -7 53
-15 80 -22 75 -30 144 -17 144 6 0 11 -7 11 -16z m250 -524 c3 -161 2 -195 -4
-189 -2 2 -7 103 -10 224 -3 140 -2 200 4 165 4 -30 9 -120 10 -200z m-130
-190 c0 -11 -4 -20 -9 -20 -6 0 -9 9 -8 20 1 11 5 20 9 20 4 0 8 -9 8 -20z"/>
<path d="M4750 697 c0 -14 5 -29 10 -32 7 -4 8 3 4 22 -9 38 -14 42 -14 10z"/>
<path d="M2937 1583 c-4 -3 -7 -11 -7 -17 0 -6 5 -5 12 2 6 6 9 14 7 17 -3 3
-9 2 -12 -2z"/>
<path d="M3940 1561 c0 -6 5 -13 10 -16 6 -3 10 1 10 9 0 9 -4 16 -10 16 -5 0
-10 -4 -10 -9z"/>
<path d="M4491 1554 c-7 -8 -11 -17 -9 -20 3 -2 13 5 23 16 10 11 14 20 9 20
-5 -1 -15 -8 -23 -16z"/>
<path d="M3725 1549 c-4 -6 -14 -8 -22 -5 -8 3 -12 2 -8 -3 3 -5 -9 -21 -26
-35 -33 -28 -31 -33 4 -14 26 13 79 68 67 68 -5 0 -12 -5 -15 -11z"/>
<path d="M4324 1525 c-16 -14 -24 -25 -19 -25 13 0 26 10 44 33 19 24 9 21
-25 -8z"/>
<path d="M4415 1540 c3 -5 8 -10 11 -10 2 0 4 5 4 10 0 6 -5 10 -11 10 -5 0
-7 -4 -4 -10z"/>
<path d="M3902 1506 c-29 -49 -28 -54 4 -17 14 17 24 36 22 43 -2 6 -14 -5
-26 -26z"/>
<path d="M3592 1500 c-13 -11 -17 -21 -11 -27 5 -5 -10 -23 -41 -46 -56 -42
-65 -44 -80 -19 -10 15 -11 14 -7 -5 3 -12 -1 -30 -9 -40 -17 -22 -18 -41 -2
-25 15 15 25 15 31 0 2 -7 2 -3 0 9 -2 18 5 27 34 42 21 11 50 31 64 45 15 14
29 23 32 20 2 -2 10 2 17 11 11 13 10 14 -4 9 -24 -9 -20 11 6 28 15 10 17 15
6 15 -8 0 -24 -8 -36 -17z"/>
<path d="M3964 1480 c4 -32 1 -51 -10 -65 -13 -17 -16 -18 -24 -5 -8 13 -11
13 -22 -2 -7 -9 -23 -19 -35 -23 -23 -6 -28 1 -24 32 1 8 -5 10 -15 6 -13 -5
-15 -2 -10 15 6 17 4 21 -8 16 -9 -3 -16 -14 -16 -23 0 -9 -3 -27 -6 -41 -4
-19 -3 -22 5 -10 11 16 27 8 16 -9 -9 -15 -42 -14 -47 1 -3 8 -9 4 -17 -10 -6
-12 -18 -22 -26 -22 -16 0 -20 16 -6 24 5 3 11 15 14 26 4 17 3 19 -8 10 -8
-6 -16 -23 -20 -38 -4 -19 -18 -33 -45 -45 -22 -10 -44 -16 -49 -13 -13 8 -21
-34 -10 -55 5 -10 10 -37 11 -61 1 -31 3 -23 7 27 5 53 10 70 21 70 8 0 21 8
28 18 18 24 46 23 39 -2 -4 -15 -1 -18 12 -13 19 7 46 32 35 32 -21 0 34 29
56 30 14 0 36 7 50 15 34 19 49 19 45 -2 -1 -10 0 -22 4 -28 3 -5 8 4 11 20 4
21 11 30 25 31 26 2 75 23 54 23 -11 1 -16 13 -18 43 -1 23 -7 49 -12 57 -7
12 -9 3 -5 -29z"/>
<path d="M4221 1511 c-7 -5 -12 -14 -10 -20 2 -6 10 -2 17 9 14 22 13 23 -7
11z"/>
<path d="M4533 1513 c-23 -4 -31 -27 -13 -38 6 -3 7 1 4 9 -10 27 14 18 29
-10 l14 -26 -1 36 c-1 20 -3 35 -6 35 -3 -1 -15 -4 -27 -6z"/>
<path d="M4736 1498 c4 -13 17 -45 30 -73 21 -46 22 -47 17 -15 -6 36 -39 110
-49 110 -3 0 -2 -10 2 -22z"/>
<path d="M2649 1473 c-13 -16 -12 -17 4 -4 16 13 21 21 13 21 -2 0 -10 -8 -17
-17z"/>
<path d="M3786 1481 c-4 -7 -5 -15 -2 -18 9 -9 19 4 14 18 -4 11 -6 11 -12 0z"/>
<path d="M3845 1479 c-4 -6 -5 -12 -2 -15 2 -3 7 2 10 11 7 17 1 20 -8 4z"/>
<path d="M2812 1447 c-17 -47 -14 -59 4 -18 8 19 13 39 12 43 -2 5 -9 -6 -16
-25z"/>
<path d="M4316 1471 c-3 -5 0 -14 7 -19 10 -8 13 -6 14 9 2 19 -11 26 -21 10z"/>
<path d="M4590 1470 c0 -5 4 -18 9 -28 5 -9 12 -26 16 -36 3 -10 8 -16 11 -13
8 7 -14 75 -27 82 -5 4 -9 1 -9 -5z"/>
<path d="M3510 1460 c-8 -5 -12 -12 -9 -15 4 -3 12 1 19 10 14 17 11 19 -10 5z"/>
<path d="M4471 1450 c0 -8 4 -22 9 -30 12 -18 12 -2 0 25 -6 13 -9 15 -9 5z"/>
<path d="M3617 1443 c-11 -10 -8 -43 3 -43 6 0 10 11 10 25 0 26 -2 29 -13 18z"/>
<path d="M2556 1398 c-16 -15 -25 -28 -19 -28 11 0 58 48 52 53 -2 2 -17 -9
-33 -25z"/>
<path d="M3357 1423 c-4 -3 -7 -11 -7 -17 0 -6 5 -5 12 2 6 6 9 14 7 17 -3 3
-9 2 -12 -2z"/>
<path d="M2699 1403 c-29 -35 -41 -53 -36 -53 2 0 17 16 31 35 28 36 31 49 5
18z"/>
<path d="M3420 1390 c-8 -5 -12 -12 -9 -15 4 -3 12 1 19 10 14 17 11 19 -10 5z"/>
<path d="M3254 1380 c-21 -8 -39 -28 -33 -35 2 -2 18 8 34 21 32 26 32 28 -1
14z"/>
<path d="M4137 1373 c-4 -3 -7 -45 -7 -91 0 -47 2 -83 5 -81 5 6 17 179 12
179 -2 0 -7 -3 -10 -7z"/>
<path d="M4261 1344 c0 -11 3 -14 6 -6 3 7 2 16 -1 19 -3 4 -6 -2 -5 -13z"/>
<path d="M4501 1340 c0 -8 4 -24 9 -35 5 -13 9 -14 9 -5 0 8 -4 24 -9 35 -5
13 -9 14 -9 5z"/>
<path d="M5110 1344 c0 -5 11 -22 25 -39 20 -25 23 -27 18 -8 -5 22 -43 63
-43 47z"/>
<path d="M2476 1323 c-6 -14 -5 -15 5 -6 7 7 10 15 7 18 -3 3 -9 -2 -12 -12z"/>
<path d="M2556 1303 c-14 -20 -26 -44 -26 -52 0 -8 14 7 31 33 17 26 29 49 26
52 -3 3 -17 -12 -31 -33z"/>
<path d="M2773 1325 c-3 -9 -3 -18 -1 -21 3 -3 8 4 11 16 6 23 -1 27 -10 5z"/>
<path d="M3148 1315 c-16 -13 -28 -33 -28 -45 0 -11 -7 -20 -15 -20 -18 0 -20
16 -2 23 7 3 8 6 1 6 -14 1 -108 -103 -163 -179 -21 -30 -54 -70 -73 -87 -18
-18 -27 -33 -20 -33 14 0 -11 -46 -37 -68 -12 -10 -13 -14 -1 -25 10 -9 12 -9
6 1 -5 7 -1 12 9 12 14 0 14 -3 -3 -25 -22 -27 -47 -116 -39 -137 2 -7 8 1 11
17 12 49 36 96 46 90 6 -3 7 1 4 9 -4 12 0 16 16 16 19 0 20 2 10 15 -9 10 -9
19 -2 28 5 6 16 31 23 55 14 48 79 109 79 74 0 -23 -29 -113 -43 -129 -5 -7
-7 -22 -4 -34 3 -12 3 -18 0 -15 -10 9 -33 -15 -33 -34 0 -10 -22 -62 -50
-117 -27 -54 -50 -107 -51 -118 -1 -13 -4 -10 -9 10 -8 30 -8 30 -9 -7 -1 -29
2 -36 14 -32 8 4 15 16 15 28 1 26 24 58 35 48 5 -4 5 -2 2 4 -4 7 -1 28 6 48
11 31 14 34 23 18 6 -9 10 -45 10 -78 -1 -56 1 -61 17 -53 13 8 17 23 17 73 0
104 11 184 27 190 8 3 12 2 9 -2 -8 -13 11 -35 23 -28 6 4 11 18 11 32 0 14 4
23 9 20 5 -3 17 11 26 32 10 20 22 45 27 56 7 12 7 16 0 12 -5 -3 -12 3 -15
14 -3 11 -2 20 2 20 5 0 16 19 25 43 9 23 20 38 24 32 4 -5 15 -11 25 -13 16
-3 16 -1 1 32 -15 31 -16 36 -1 50 8 9 18 16 21 16 3 0 28 14 54 30 58 35 62
36 62 10 0 -11 4 -20 9 -20 6 0 9 9 8 20 -1 11 -4 20 -8 20 -4 0 -12 12 -17
28 -8 21 -11 23 -11 7 -1 -20 -84 -79 -101 -73 -5 2 7 34 26 72 19 38 33 73
32 77 -2 4 -15 -3 -30 -16z m-64 -87 c-5 -7 -9 -15 -9 -18 0 -3 -5 -13 -11
-24 -10 -17 -11 -17 -18 -1 -4 12 1 26 15 42 23 24 38 25 23 1z m16 -15 c-1
-13 -30 -48 -30 -36 0 7 5 15 10 18 6 4 8 11 5 16 -4 5 -1 9 4 9 6 0 11 -3 11
-7z m-74 -53 c-2 -16 -12 -42 -22 -57 -10 -15 -17 -34 -16 -41 3 -10 -1 -10
-17 0 -23 14 -26 24 -11 33 6 4 8 11 5 16 -4 5 -1 9 5 9 6 0 20 16 31 35 26
43 30 44 25 5z m8 -98 c-7 -2 -14 -15 -16 -30 -2 -19 -5 -22 -9 -11 -4 8 0 31
8 50 13 30 16 32 23 14 5 -13 3 -21 -6 -23z m-38 -94 c-3 -18 -5 -36 -5 -39
-1 -4 -8 -9 -16 -13 -12 -4 -14 0 -9 22 8 30 22 62 29 62 3 0 3 -15 1 -32z"/>
<path d="M3307 1326 c-4 -10 -1 -13 9 -9 7 3 14 9 14 14 0 14 -17 10 -23 -5z"/>
<path d="M3363 1318 c-26 -19 -31 -28 -26 -48 3 -14 10 -31 16 -38 7 -9 7 -16
-1 -24 -7 -7 -12 -21 -12 -32 0 -20 0 -20 19 0 26 28 37 66 18 58 -10 -3 -18
5 -25 24 -9 26 -8 31 8 35 10 2 23 14 29 26 15 26 13 26 -26 -1z"/>
<path d="M3203 1304 c-15 -16 -16 -24 -4 -24 8 0 24 30 19 35 -2 2 -9 -3 -15
-11z"/>
<path d="M3481 1294 c0 -11 3 -14 6 -6 3 7 2 16 -1 19 -3 4 -6 -2 -5 -13z"/>
<path d="M4263 1275 c0 -22 2 -30 4 -17 2 12 2 30 0 40 -3 9 -5 -1 -4 -23z"/>
<path d="M2442 1277 c-12 -13 -22 -27 -22 -32 0 -4 11 4 26 20 14 15 23 29 21
31 -2 2 -13 -6 -25 -19z"/>
<path d="M3537 1284 c6 -15 23 -19 23 -5 0 5 -7 11 -14 14 -10 4 -13 1 -9 -9z"/>
<path d="M3272 1265 c-12 -13 -18 -26 -14 -28 10 -5 52 42 43 47 -4 3 -17 -6
-29 -19z"/>
<path d="M3501 1263 c-7 -8 -10 -17 -7 -20 9 -9 29 13 25 25 -2 6 -10 3 -18
-5z"/>
<path d="M3645 1250 c-3 -5 -1 -10 4 -10 6 0 11 5 11 10 0 6 -2 10 -4 10 -3 0
-8 -4 -11 -10z"/>
<path d="M3426 1210 c-3 -19 -2 -38 3 -43 13 -13 23 26 13 53 -8 22 -9 22 -16
-10z"/>
<path d="M2500 1194 c-8 -21 -17 -43 -19 -49 -2 -5 6 2 18 17 12 16 21 38 19
50 -2 17 -6 14 -18 -18z"/>
<path d="M2392 1197 c-16 -37 -15 -41 4 -23 8 9 14 24 11 34 -3 13 -6 11 -15
-11z"/>
<path d="M2715 1144 c-18 -42 -31 -92 -22 -84 9 8 47 113 42 118 -2 2 -11 -13
-20 -34z"/>
<path d="M3287 1131 c-9 -44 -9 -51 2 -51 15 0 22 35 13 60 -8 23 -9 22 -15
-9z"/>
<path d="M3155 1122 c-3 -3 -5 -22 -5 -43 0 -21 -4 -41 -10 -44 -16 -10 -11
-26 8 -23 16 3 17 -24 19 -427 3 -496 2 -479 13 -445 4 14 7 134 6 267 -1 193
1 239 11 231 19 -15 17 7 -2 26 -17 16 -20 46 -6 46 5 0 12 -8 15 -17 2 -10 3
-3 1 16 -2 19 -9 37 -15 41 -7 5 -6 11 4 20 9 7 13 17 10 22 -12 20 -10 230 2
254 7 13 9 24 5 24 -4 0 -6 13 -3 29 3 25 1 29 -22 29 -14 0 -28 -3 -31 -6z"/>
<path d="M3248 1105 c-3 -14 -1 -25 3 -25 5 0 9 11 9 25 0 14 -2 25 -4 25 -2
0 -6 -11 -8 -25z"/>
<path d="M2347 1105 c-3 -11 -11 -27 -16 -35 -5 -8 -15 -28 -22 -45 -7 -16
-22 -40 -32 -51 -10 -12 -20 -33 -22 -45 -2 -13 -7 -34 -10 -46 -6 -18 -3 -23
10 -23 11 0 15 5 11 15 -3 9 0 15 8 15 15 0 30 29 21 39 -3 3 -10 -1 -15 -9
-6 -8 -10 -10 -10 -5 1 6 7 18 14 28 11 14 15 15 19 5 4 -9 6 -8 6 3 1 9 10
24 21 34 11 10 18 20 15 23 -2 2 2 17 10 32 9 18 11 37 6 56 -6 25 -8 26 -14
9z"/>
<path d="M2461 1108 c-1 -9 -8 -24 -17 -33 -9 -9 -14 -18 -11 -21 9 -9 39 44
34 58 -4 9 -6 7 -6 -4z"/>
<path d="M4131 1104 c0 -11 3 -14 6 -6 3 7 2 16 -1 19 -3 4 -6 -2 -5 -13z"/>
<path d="M4711 1104 c0 -11 3 -14 6 -6 3 7 2 16 -1 19 -3 4 -6 -2 -5 -13z"/>
<path d="M4716 1055 c4 -8 8 -15 10 -15 2 0 4 7 4 15 0 8 -4 15 -10 15 -5 0
-7 -7 -4 -15z"/>
<path d="M3069 1058 c-7 -24 -5 -36 6 -32 17 7 14 -18 -5 -42 -14 -16 -13 -16
6 -6 33 18 42 34 30 57 -10 17 -34 32 -37 23z"/>
<path d="M4203 1015 c0 -22 2 -30 4 -17 2 12 2 30 0 40 -3 9 -5 -1 -4 -23z"/>
<path d="M4403 970 c0 -25 2 -35 4 -22 2 12 2 32 0 45 -2 12 -4 2 -4 -23z"/>
<path d="M2536 964 c-9 -8 -16 -25 -15 -37 0 -22 0 -22 9 1 9 22 36 39 46 30
9 -9 -8 -38 -19 -31 -6 4 -8 0 -4 -10 4 -10 0 -17 -11 -20 -12 -3 -10 -5 6 -6
17 -1 27 7 37 32 20 49 -13 77 -49 41z"/>
<path d="M2395 939 c-4 -6 -5 -12 -2 -15 2 -3 7 2 10 11 7 17 1 20 -8 4z"/>
<path d="M2345 929 c-4 -6 -5 -12 -2 -15 2 -3 7 2 10 11 7 17 1 20 -8 4z"/>
<path d="M3060 824 c-1 -163 -12 -427 -23 -534 -15 -136 -19 -290 -9 -290 7 0
12 12 12 27 0 15 4 88 10 162 17 247 27 737 15 749 -3 3 -5 -48 -5 -114z"/>
<path d="M2156 895 c-3 -8 -2 -15 3 -15 5 0 14 7 21 15 10 12 10 15 -3 15 -8
0 -17 -7 -21 -15z"/>
<path d="M4941 884 c0 -11 3 -14 6 -6 3 7 2 16 -1 19 -3 4 -6 -2 -5 -13z"/>
<path d="M4361 874 c0 -11 3 -14 6 -6 3 7 2 16 -1 19 -3 4 -6 -2 -5 -13z"/>
<path d="M2127 873 c-4 -3 -7 -11 -7 -17 0 -6 5 -5 12 2 6 6 9 14 7 17 -3 3
-9 2 -12 -2z"/>
<path d="M2781 857 c-13 -21 -12 -21 5 -5 10 10 16 20 13 22 -3 3 -11 -5 -18
-17z"/>
<path d="M4537 820 c-9 -76 -9 -130 2 -130 12 0 22 122 12 156 -7 26 -8 23
-14 -26z"/>
<path d="M2441 844 c0 -11 3 -14 6 -6 3 7 2 16 -1 19 -3 4 -6 -2 -5 -13z"/>
<path d="M4399 855 c-12 -19 -21 -172 -11 -179 6 -4 13 18 17 56 7 69 4 139
-6 123z"/>
<path d="M4461 784 c-15 -83 -9 -110 9 -43 12 43 16 106 8 114 -2 3 -10 -29
-17 -71z"/>
<path d="M3643 810 c0 -25 2 -35 4 -22 2 12 2 32 0 45 -2 12 -4 2 -4 -23z"/>
<path d="M5236 837 c3 -10 9 -15 12 -12 3 3 0 11 -7 18 -10 9 -11 8 -5 -6z"/>
<path d="M2297 834 c-4 -4 -7 -14 -7 -23 0 -11 3 -12 11 -4 6 6 10 16 7 23 -2
6 -7 8 -11 4z"/>
<path d="M4258 800 c-3 -17 -1 -33 4 -36 4 -3 8 4 8 16 0 14 4 19 13 14 7 -5
7 -1 -3 12 -8 10 -15 20 -16 22 -1 2 -4 -11 -6 -28z"/>
<path d="M2426 803 c-6 -14 -5 -15 5 -6 7 7 10 15 7 18 -3 3 -9 -2 -12 -12z"/>
<path d="M4176 789 c-9 -45 -7 -97 3 -103 13 -9 31 41 31 89 0 53 -24 63 -34
14z"/>
<path d="M2819 789 c-7 -14 -7 -25 -1 -31 6 -6 11 1 14 21 5 36 3 38 -13 10z"/>
<path d="M4950 805 c0 -5 5 -17 10 -25 5 -8 10 -10 10 -5 0 6 -5 17 -10 25 -5
8 -10 11 -10 5z"/>
<path d="M5256 797 c3 -10 9 -15 12 -12 3 3 0 11 -7 18 -10 9 -11 8 -5 -6z"/>
<path d="M2045 789 c-4 -6 -5 -12 -2 -15 2 -3 7 2 10 11 7 17 1 20 -8 4z"/>
<path d="M3313 740 c0 -36 2 -50 4 -32 2 17 2 47 0 65 -2 17 -4 3 -4 -33z"/>
<path d="M4350 755 c0 -27 3 -45 7 -41 7 7 5 77 -3 85 -2 2 -4 -17 -4 -44z"/>
<path d="M5092 780 c0 -14 2 -19 5 -12 2 6 2 18 0 25 -3 6 -5 1 -5 -13z"/>
<path d="M2059 770 c-4 -8 -5 -27 -3 -42 1 -16 -1 -28 -6 -28 -5 0 -11 12 -13
28 -3 15 -2 -9 2 -53 8 -106 8 -213 -2 -250 -4 -16 -4 -23 -1 -15 4 8 13 19
20 23 8 4 14 17 14 27 0 11 5 20 10 20 17 0 11 -50 -10 -89 -21 -39 -35 -72
-82 -191 -44 -110 -69 -183 -64 -187 2 -3 10 6 17 19 6 12 22 33 35 46 12 13
30 40 39 60 9 20 32 67 51 104 39 78 38 74 20 81 -9 4 -13 1 -10 -6 2 -7 -2
-21 -10 -32 -12 -16 -15 -17 -16 -4 0 9 3 19 8 23 7 7 8 11 11 37 0 6 7 9 15
6 11 -4 18 12 30 65 20 89 20 109 1 102 -18 -7 -20 13 -5 52 7 17 7 31 1 38
-5 6 -11 37 -13 69 -2 36 -7 57 -15 57 -6 0 -13 12 -15 28 -2 18 -5 22 -9 12z
m31 -89 c0 -14 -2 -14 -9 -2 -10 15 -10 15 -24 -54 -3 -11 -5 -1 -6 22 0 23 4
45 10 48 6 4 8 14 5 24 -5 12 -2 11 9 -3 8 -11 15 -27 15 -35z"/>
<path d="M2111 764 c0 -11 3 -14 6 -6 3 7 2 16 -1 19 -3 4 -6 -2 -5 -13z"/>
<path d="M2211 764 c0 -11 3 -14 6 -6 3 7 2 16 -1 19 -3 4 -6 -2 -5 -13z"/>
<path d="M2700 718 c-51 -100 -67 -129 -101 -176 -17 -24 -28 -46 -25 -49 3
-4 6 -1 6 5 0 7 9 12 20 12 21 0 44 40 87 150 13 36 31 76 39 88 9 13 13 26
11 29 -3 2 -20 -24 -37 -59z"/>
<path d="M5301 764 c0 -11 3 -14 6 -6 3 7 2 16 -1 19 -3 4 -6 -2 -5 -13z"/>
<path d="M4120 754 c0 -10 -6 -14 -15 -10 -12 4 -15 -4 -14 -47 1 -29 4 -42 6
-30 3 14 9 20 19 16 11 -4 14 5 14 41 0 25 -2 46 -5 46 -3 0 -5 -7 -5 -16z"/>
<path d="M3907 743 c-8 -29 -7 -178 2 -192 12 -20 21 53 16 133 -5 73 -10 89
-18 59z"/>
<path d="M3980 738 c0 -13 -3 -54 -6 -93 -5 -48 -3 -67 4 -60 15 15 27 175 13
175 -6 0 -11 -10 -11 -22z"/>
<path d="M2162 739 c-1 -9 -5 -32 -8 -50 -4 -28 -3 -31 6 -16 6 9 9 32 7 50
-2 17 -5 25 -5 16z"/>
<path d="M2224 735 c-4 -8 -10 -12 -15 -9 -5 3 -9 2 -8 -3 1 -4 -1 -17 -5 -28
-29 -76 -50 -170 -42 -190 3 -8 1 -17 -3 -20 -5 -2 -12 -26 -16 -52 -3 -27 -9
-59 -11 -73 -3 -14 6 1 19 33 14 31 31 67 39 80 15 23 13 61 -3 52 -13 -9 -11
5 12 76 37 108 48 149 43 149 -2 0 -7 -7 -10 -15z"/>
<path d="M2761 689 c-9 -25 -8 -34 1 -40 16 -10 31 37 19 59 -6 11 -11 6 -20
-19z"/>
<path d="M5070 704 c0 -10 5 -26 10 -34 8 -11 9 -7 4 15 -8 37 -14 45 -14 19z"/>
<path d="M5113 670 c4 -30 14 -104 22 -165 8 -60 18 -157 22 -215 4 -66 11
-110 20 -118 16 -17 17 -2 3 83 -6 33 -12 123 -15 200 -5 152 -20 238 -43 258
-13 10 -14 5 -9 -43z"/>
<path d="M3646 663 c-4 -9 -2 -21 4 -27 7 -7 10 -2 10 17 0 31 -5 34 -14 10z"/>
<path d="M3305 650 c-3 -5 -1 -10 4 -10 6 0 11 5 11 10 0 6 -2 10 -4 10 -3 0
-8 -4 -11 -10z"/>
<path d="M3613 620 c0 -25 2 -35 4 -22 2 12 2 32 0 45 -2 12 -4 2 -4 -23z"/>
<path d="M3747 653 c-11 -10 -8 -133 3 -133 6 0 10 30 10 70 0 70 -1 76 -13
63z"/>
<path d="M2713 623 c11 -57 -55 -195 -85 -177 -4 3 -8 0 -8 -5 0 -14 3 -14 35
1 14 6 25 15 25 20 0 5 11 25 25 46 32 49 48 129 28 136 -24 9 -26 7 -20 -21z"/>
<path d="M4016 634 c-8 -22 -8 -24 9 -24 8 0 19 -15 25 -32 9 -31 10 -30 5 11
-3 24 -8 48 -11 53 -8 13 -21 9 -28 -8z"/>
<path d="M4236 625 c-3 -8 -1 -15 4 -15 6 0 10 7 10 15 0 8 -2 15 -4 15 -2 0
-6 -7 -10 -15z"/>
<path d="M4630 584 c0 -27 5 -56 10 -64 6 -9 7 6 3 45 -7 75 -13 84 -13 19z"/>
<path d="M5092 610 c0 -14 2 -19 5 -12 2 6 2 18 0 25 -3 6 -5 1 -5 -13z"/>
<path d="M3303 565 c0 -33 2 -45 4 -27 2 18 2 45 0 60 -2 15 -4 0 -4 -33z"/>
<path d="M3440 609 c0 -5 5 -7 10 -4 6 3 10 8 10 11 0 2 -4 4 -10 4 -5 0 -10
-5 -10 -11z"/>
<path d="M3518 508 c-3 -100 2 -141 16 -127 7 7 16 208 10 224 -15 38 -23 6
-26 -97z"/>
<path d="M3560 581 c0 -22 5 -43 10 -46 6 -4 10 10 10 34 0 22 -4 43 -10 46
-6 4 -10 -10 -10 -34z"/>
<path d="M3201 594 c0 -11 3 -14 6 -6 3 7 2 16 -1 19 -3 4 -6 -2 -5 -13z"/>
<path d="M3438 555 c-3 -14 -1 -28 3 -31 5 -3 9 9 9 25 0 38 -6 40 -12 6z"/>
<path d="M3370 558 c0 -7 -7 -71 -15 -143 -17 -152 -18 -183 -6 -170 19 22 44
325 27 325 -4 0 -6 -6 -6 -12z"/>
<path d="M3643 555 c0 -8 4 -12 9 -9 5 3 6 10 3 15 -9 13 -12 11 -12 -6z"/>
<path d="M2671 553 c0 -6 -4 -20 -7 -30 -5 -14 -4 -15 5 -7 7 7 11 20 8 30 -3
11 -5 14 -6 7z"/>
<path d="M3202 540 c0 -14 2 -19 5 -12 2 6 2 18 0 25 -3 6 -5 1 -5 -13z"/>
<path d="M3458 533 c-4 -64 -2 -78 7 -76 14 4 19 103 6 103 -6 0 -12 -12 -13
-27z"/>
<path d="M3845 550 c-3 -5 -1 -10 4 -10 6 0 11 5 11 10 0 6 -2 10 -4 10 -3 0
-8 -4 -11 -10z"/>
<path d="M4054 430 c0 -63 1 -89 3 -57 2 31 2 83 0 115 -2 31 -3 5 -3 -58z"/>
<path d="M3421 466 c-14 -55 -14 -89 -1 -81 5 3 7 12 4 19 -3 8 0 33 6 56 6
23 9 44 7 46 -2 3 -10 -15 -16 -40z"/>
<path d="M3202 465 c0 -16 2 -22 5 -12 2 9 2 23 0 30 -3 6 -5 -1 -5 -18z"/>
<path d="M2526 456 c-8 -14 -25 -27 -36 -31 -14 -5 -19 -12 -15 -25 3 -11 0
-20 -10 -24 -8 -3 -15 -12 -15 -19 0 -8 -9 -24 -20 -37 -11 -13 -20 -29 -20
-36 0 -7 -9 -18 -20 -24 -13 -7 -20 -21 -20 -41 0 -19 4 -28 11 -23 6 3 9 15
6 25 -3 11 -1 17 4 14 4 -3 19 13 31 36 54 98 87 139 112 138 12 0 16 -3 9 -6
-7 -2 -15 -20 -19 -40 -4 -19 -13 -37 -20 -40 -13 -5 -38 -73 -30 -80 2 -2 11
14 19 36 9 21 21 42 27 46 5 3 10 15 10 25 0 10 11 32 25 48 14 17 25 38 25
48 0 16 -2 16 -16 -4 -20 -29 -36 -19 -24 13 12 32 7 32 -14 1z"/>
<path d="M2455 440 c-3 -6 1 -7 9 -4 18 7 21 14 7 14 -6 0 -13 -4 -16 -10z"/>
<path d="M3250 385 c0 -30 5 -55 10 -55 6 0 10 25 10 55 0 30 -4 55 -10 55 -5
0 -10 -25 -10 -55z"/>
<path d="M2391 403 c-19 -12 -43 -23 -55 -23 -15 0 -17 -3 -8 -9 10 -6 6 -14
-17 -32 -16 -13 -56 -48 -88 -78 -49 -46 -51 -48 -10 -16 26 21 47 34 47 30 0
-4 25 16 56 44 50 46 91 71 134 83 12 4 11 7 -5 15 -16 8 -27 5 -54 -14z"/>
<path d="M3211 414 c0 -11 3 -14 6 -6 3 7 2 16 -1 19 -3 4 -6 -2 -5 -13z"/>
<path d="M3293 385 c0 -22 2 -30 4 -17 2 12 2 30 0 40 -3 9 -5 -1 -4 -23z"/>
<path d="M2003 369 c-14 -35 -10 -37 11 -5 9 14 12 27 8 30 -5 3 -13 -8 -19
-25z"/>
<path d="M2872 370 c0 -14 2 -19 5 -12 2 6 2 18 0 25 -3 6 -5 1 -5 -13z"/>
<path d="M2274 354 c-18 -14 -18 -14 6 -3 31 14 36 19 24 19 -6 0 -19 -7 -30
-16z"/>
<path d="M2771 304 c0 -11 3 -14 6 -6 3 7 2 16 -1 19 -3 4 -6 -2 -5 -13z"/>
<path d="M3252 290 c0 -19 2 -27 5 -17 2 9 2 25 0 35 -3 9 -5 1 -5 -18z"/>
<path d="M2971 294 c0 -11 3 -14 6 -6 3 7 2 16 -1 19 -3 4 -6 -2 -5 -13z"/>
<path d="M4051 294 c0 -11 3 -14 6 -6 3 7 2 16 -1 19 -3 4 -6 -2 -5 -13z"/>
<path d="M1967 283 c-2 -10 -8 -27 -12 -38 l-7 -20 14 20 c20 27 29 55 19 55
-5 0 -11 -8 -14 -17z"/>
<path d="M2336 255 c-17 -25 -16 -25 4 -13 11 7 20 18 20 25 0 19 -6 16 -24
-12z"/>
<path d="M5091 254 c0 -11 3 -14 6 -6 3 7 2 16 -1 19 -3 4 -6 -2 -5 -13z"/>
<path d="M2257 239 c4 -13 8 -18 11 -10 2 7 -1 18 -6 23 -8 8 -9 4 -5 -13z"/>
<path d="M4632 210 c0 -19 2 -27 5 -17 2 9 2 25 0 35 -3 9 -5 1 -5 -18z"/>
<path d="M2292 208 c-14 -14 -16 -84 -3 -93 6 -3 13 11 16 32 3 21 8 46 10 56
4 20 -6 22 -23 5z"/>
<path d="M2206 184 c-18 -17 -18 -18 -20 -56 -1 -16 2 -28 6 -28 7 0 12 44 6
54 -2 2 6 13 16 25 22 24 15 29 -8 5z"/>
<path d="M2335 190 c-3 -5 -1 -10 4 -10 6 0 11 5 11 10 0 6 -2 10 -4 10 -3 0
-8 -4 -11 -10z"/>
<path d="M2254 165 c-3 -8 -4 -20 -2 -27 3 -7 7 -1 10 15 6 29 1 36 -8 12z"/>
<path d="M5031 99 c-1 -61 2 -80 11 -77 14 5 23 97 13 135 -11 47 -23 20 -24
-58z"/>
<path d="M2893 100 c0 -30 2 -43 4 -28 2 16 2 40 0 55 -2 16 -4 3 -4 -27z"/>
<path d="M5151 119 c-2 -38 -22 -90 -32 -83 -5 3 -9 -2 -9 -10 0 -9 6 -16 14
-16 16 0 40 77 33 111 -4 24 -4 24 -6 -2z"/>
<path d="M5192 105 c0 -16 2 -22 5 -12 2 9 2 23 0 30 -3 6 -5 -1 -5 -18z"/>
<path d="M4496 62 c-4 -29 -6 -56 -3 -59 8 -8 19 60 15 88 -3 15 -7 5 -12 -29z"/>
<path d="M4621 94 c0 -11 3 -14 6 -6 3 7 2 16 -1 19 -3 4 -6 -2 -5 -13z"/>
<path d="M1902 63 c-6 -20 -7 -32 -2 -27 10 10 25 64 18 64 -3 0 -10 -16 -16
-37z"/>
<path d="M4885 60 c2 -14 5 -33 5 -42 0 -10 5 -18 10 -18 6 0 10 19 10 43 0
27 -3 37 -9 28 -7 -11 -10 -11 -15 0 -3 8 -4 3 -1 -11z"/>
<path d="M4618 25 c-3 -14 -1 -25 3 -25 5 0 9 11 9 25 0 32 -6 32 -12 0z"/>
<path d="M4691 24 c0 -11 3 -14 6 -6 3 7 2 16 -1 19 -3 4 -6 -2 -5 -13z"/>
<path d="M4852 20 c0 -14 2 -19 5 -12 2 6 2 18 0 25 -3 6 -5 1 -5 -13z"/>
</g>
</svg>
